G04*
G04 #@! TF.GenerationSoftware,Altium Limited,Altium Designer,18.1.9 (240)*
G04*
G04 Layer_Color=128*
%FSLAX25Y25*%
%MOIN*%
G70*
G01*
G75*
%ADD10C,0.00394*%
%ADD11C,0.00200*%
%ADD12C,0.00197*%
D10*
X538032Y263364D02*
G03*
X538032Y263364I-1969J0D01*
G01*
X535861Y181463D02*
Y189337D01*
X530939Y181463D02*
Y189337D01*
X535861D01*
X530939Y181463D02*
X535861D01*
X464096Y205271D02*
X476104D01*
X464096Y212161D02*
X476104D01*
X464096Y205271D02*
Y212161D01*
X476104Y205271D02*
Y212161D01*
X481093Y198643D02*
Y203958D01*
X492707Y198643D02*
Y203958D01*
X481093Y198643D02*
X492707D01*
X481093Y203958D02*
X492707D01*
X558642Y320807D02*
X563958D01*
X558642Y309193D02*
X563958D01*
X558642D02*
Y320807D01*
X563958Y309193D02*
Y320807D01*
X429263Y316139D02*
X437137D01*
X429263Y321061D02*
X437137D01*
Y316139D02*
Y321061D01*
X429263Y316139D02*
Y321061D01*
X411643Y301458D02*
X416958D01*
X411643Y289844D02*
X416958D01*
X411643D02*
Y301458D01*
X416958Y289844D02*
Y301458D01*
X411643Y287211D02*
X416958D01*
X411643Y275597D02*
X416958D01*
X411643D02*
Y287211D01*
X416958Y275597D02*
Y287211D01*
X411643Y244470D02*
X416958D01*
X411643Y232856D02*
X416958D01*
X411643D02*
Y244470D01*
X416958Y232856D02*
Y244470D01*
X411643Y230223D02*
X416958D01*
X411643Y218609D02*
X416958D01*
X411643D02*
Y230223D01*
X416958Y218609D02*
Y230223D01*
X411643Y272964D02*
X416958D01*
X411643Y261350D02*
X416958D01*
X411643D02*
Y272964D01*
X416958Y261350D02*
Y272964D01*
X411643Y258717D02*
X416958D01*
X411643Y247103D02*
X416958D01*
X411643D02*
Y258717D01*
X416958Y247103D02*
Y258717D01*
X548751Y171493D02*
Y183107D01*
X543436Y171493D02*
Y183107D01*
Y171493D02*
X548751D01*
X543436Y183107D02*
X548751D01*
X532520Y259821D02*
X560079D01*
X532520Y287380D02*
X560079D01*
X532520Y259821D02*
Y287380D01*
X560079Y259821D02*
Y287380D01*
X531431Y185400D02*
X535368D01*
X533400Y183431D02*
Y187369D01*
X470100Y206747D02*
Y210684D01*
X468131Y208716D02*
X472069D01*
X484932Y201300D02*
X488869D01*
X486900Y199331D02*
Y203269D01*
X561300Y313032D02*
Y316968D01*
X559332Y315000D02*
X563269D01*
X433200Y316632D02*
Y320568D01*
X431231Y318600D02*
X435169D01*
X414300Y293683D02*
Y297620D01*
X412331Y295651D02*
X416268D01*
X414300Y279436D02*
Y283373D01*
X412331Y281404D02*
X416268D01*
X414300Y236695D02*
Y240632D01*
X412331Y238663D02*
X416268D01*
X414300Y222448D02*
Y226385D01*
X412331Y224416D02*
X416268D01*
X414300Y265189D02*
Y269126D01*
X412331Y267157D02*
X416268D01*
X414300Y250942D02*
Y254879D01*
X412331Y252910D02*
X416268D01*
X544125Y177300D02*
X548062D01*
X546093Y175331D02*
Y179269D01*
X546300Y271632D02*
Y275569D01*
X544332Y273600D02*
X548269D01*
D11*
X565897Y305558D02*
X566897D01*
X566397D02*
Y306058D01*
Y305058D02*
Y305558D01*
X559054Y325042D02*
X560054D01*
X559554Y324542D02*
Y325042D01*
Y325542D01*
X523679Y203226D02*
Y203726D01*
Y202726D02*
Y203226D01*
X523179D02*
X524179D01*
X503821Y208800D02*
Y209300D01*
Y209800D01*
X503321Y209300D02*
X504321D01*
X496979Y215842D02*
Y216342D01*
Y215342D02*
Y215842D01*
X496479D02*
X497479D01*
X523179Y197742D02*
X524179D01*
X523679Y197242D02*
Y197742D01*
Y198242D01*
X496979Y205058D02*
Y205557D01*
Y204557D02*
Y205058D01*
X496479D02*
X497479D01*
X573779Y263274D02*
Y263774D01*
Y262774D02*
Y263274D01*
X573279D02*
X574279D01*
X573779Y269307D02*
Y269807D01*
Y268807D02*
Y269307D01*
X573279D02*
X574279D01*
X564727Y253227D02*
X565434Y253935D01*
X565081Y253581D02*
X565434Y253227D01*
X564727Y253935D02*
X565081Y253581D01*
X518521Y269058D02*
Y269558D01*
Y270058D01*
X518021Y269558D02*
X519021D01*
X564927Y294071D02*
X565635Y293364D01*
X564927D02*
X565281Y293718D01*
X565635Y294071D01*
X529665Y253034D02*
X530372Y252327D01*
X530019Y252681D02*
X530372Y253034D01*
X529665Y252327D02*
X530019Y252681D01*
X435742Y224321D02*
Y225321D01*
X435242Y224821D02*
X435742D01*
X436242D01*
X435742Y251201D02*
Y252201D01*
X435242Y251701D02*
X435742D01*
X436242D01*
X435742Y264641D02*
Y265641D01*
X435242Y265141D02*
X435742D01*
X436242D01*
X434958Y271739D02*
X435458D01*
X435958D01*
X435458Y271239D02*
Y272239D01*
X434958Y285179D02*
X435458D01*
X435958D01*
X435458Y284679D02*
Y285679D01*
X434958Y231419D02*
X435458D01*
X435958D01*
X435458Y230919D02*
Y231919D01*
X541872Y186442D02*
X542872D01*
X542372Y185942D02*
Y186442D01*
Y186942D01*
X548715Y167858D02*
X549715D01*
X549215D02*
Y168358D01*
Y167358D02*
Y167858D01*
X541872Y191714D02*
X542872D01*
X542372Y191214D02*
Y191714D01*
Y192214D01*
X556527Y244621D02*
X557027D01*
X556027D02*
X556527D01*
Y244121D02*
Y245121D01*
X531927Y244621D02*
X532427D01*
X531427D02*
X531927D01*
Y244121D02*
Y245121D01*
X531143Y226379D02*
X531643D01*
X532143D01*
X531643Y225879D02*
Y226879D01*
X573059Y193129D02*
X573559D01*
X574059D01*
X573559Y192629D02*
Y193629D01*
X568260Y193129D02*
X568760D01*
X569260D01*
X568760Y192629D02*
Y193629D01*
X563839Y192629D02*
Y193629D01*
Y193129D02*
X564339D01*
X563339D02*
X563839D01*
X555743Y226379D02*
X556243D01*
X556743D01*
X556243Y225879D02*
Y226879D01*
X588428Y283500D02*
X591972D01*
X590200Y281728D02*
Y285272D01*
X578428Y283500D02*
X581972D01*
X580200Y281728D02*
Y285272D01*
X588428Y293500D02*
X591972D01*
X590200Y291728D02*
Y295272D01*
X578428Y293500D02*
X581972D01*
X580200Y291728D02*
Y295272D01*
X588428Y303500D02*
X591972D01*
X590200Y301728D02*
Y305272D01*
X578428Y303500D02*
X581972D01*
X580200Y301728D02*
Y305272D01*
X588428Y313500D02*
X591972D01*
X590200Y311728D02*
Y315272D01*
X578428Y313500D02*
X581972D01*
X580200Y311728D02*
Y315272D01*
X588428Y323500D02*
X591972D01*
X590200Y321728D02*
Y325272D01*
X578428Y323500D02*
X581972D01*
X580200Y321728D02*
Y325272D01*
X588428Y333500D02*
X591972D01*
X590200Y331728D02*
Y335272D01*
X578428Y333500D02*
X581972D01*
X580200Y331728D02*
Y335272D01*
X493524Y168000D02*
X496476D01*
X495000Y166524D02*
Y169476D01*
X521083Y168000D02*
X524035D01*
X522559Y166524D02*
Y169476D01*
X448248Y186504D02*
X451201D01*
X449724Y185028D02*
Y187980D01*
X448248Y168000D02*
X451201D01*
X449724Y166524D02*
Y169476D01*
X392735Y150541D02*
X397065D01*
X394900Y148376D02*
Y152707D01*
X392735Y194041D02*
X397065D01*
X394900Y191876D02*
Y196207D01*
X430660Y182291D02*
X438140D01*
X434400Y178551D02*
Y186031D01*
X430660Y162291D02*
X438140D01*
X434400Y158551D02*
Y166031D01*
X521767Y291000D02*
X522967D01*
X522367Y290400D02*
Y291600D01*
X557535Y239700D02*
X558735D01*
X558135Y239100D02*
Y240300D01*
X536871Y222600D02*
X538071D01*
X537471Y222000D02*
Y223200D01*
X494400Y215700D02*
X495600D01*
X495000Y215100D02*
Y216300D01*
X441000Y204600D02*
X442200D01*
X441600Y204000D02*
Y205200D01*
X402000Y204600D02*
X403200D01*
X402600Y204000D02*
Y205200D01*
X390000Y201900D02*
X391200D01*
X390600Y201300D02*
Y202500D01*
X472500Y162094D02*
X474900D01*
X473700Y160894D02*
Y163294D01*
X507000Y182700D02*
X508200D01*
X507600Y182100D02*
Y183300D01*
X507000Y195000D02*
X508200D01*
X507600Y194400D02*
Y195600D01*
X511895Y195000D02*
X513095D01*
X512495Y194400D02*
Y195600D01*
X541800Y152100D02*
X543000D01*
X542400Y151500D02*
Y152700D01*
X538500Y152100D02*
X539700D01*
X539100Y151500D02*
Y152700D01*
X541800Y155400D02*
X543000D01*
X542400Y154800D02*
Y156000D01*
X538500Y155400D02*
X539700D01*
X539100Y154800D02*
Y156000D01*
X536361Y174600D02*
X537561D01*
X536961Y174000D02*
Y175200D01*
X531000Y168000D02*
X532200D01*
X531600Y167400D02*
Y168600D01*
X462300Y174600D02*
X464700D01*
X463500Y173400D02*
Y175800D01*
X570900Y210900D02*
X572100D01*
X571500Y210300D02*
Y211500D01*
X568200Y212700D02*
X569400D01*
X568800Y212100D02*
Y213300D01*
X566061Y214998D02*
X567261D01*
X566661Y214398D02*
Y215598D01*
X582000Y231000D02*
X583200D01*
X582600Y230400D02*
Y231600D01*
X567300Y231000D02*
X568500D01*
X567900Y230400D02*
Y231600D01*
X567300Y234000D02*
X568500D01*
X567900Y233400D02*
Y234600D01*
X453900Y234000D02*
X455100D01*
X454500Y233400D02*
Y234600D01*
X507621Y223221D02*
X508821D01*
X508221Y222621D02*
Y223821D01*
X430500Y235800D02*
X431700D01*
X431100Y235200D02*
Y236400D01*
X545400Y214800D02*
X546600D01*
X546000Y214200D02*
Y215400D01*
X543093Y216600D02*
X544293D01*
X543693Y216000D02*
Y217200D01*
X453900Y231000D02*
X455100D01*
X454500Y230400D02*
Y231600D01*
X442500Y231000D02*
X443700D01*
X443100Y230400D02*
Y231600D01*
X505500Y221100D02*
X506700D01*
X506100Y220500D02*
Y221700D01*
X554700Y191400D02*
X555900D01*
X555300Y190800D02*
Y192000D01*
X548542Y191400D02*
X549743D01*
X549143Y190800D02*
Y192000D01*
X483600Y288900D02*
X484800D01*
X484200Y288300D02*
Y289500D01*
X482700Y291900D02*
X483900D01*
X483300Y291300D02*
Y292500D01*
X486500Y288900D02*
X487700D01*
X487100Y288300D02*
Y289500D01*
X481800Y294900D02*
X483000D01*
X482400Y294300D02*
Y295500D01*
X490500Y280200D02*
X491700D01*
X491100Y279600D02*
Y280800D01*
X493500Y280200D02*
X494700D01*
X494100Y279600D02*
Y280800D01*
X465900Y275700D02*
X467100D01*
X466500Y275100D02*
Y276300D01*
X469200Y275700D02*
X470400D01*
X469800Y275100D02*
Y276300D01*
X465900Y272400D02*
X467100D01*
X466500Y271800D02*
Y273000D01*
X543300Y178800D02*
X544500D01*
X543900Y178200D02*
Y179400D01*
X552558Y160200D02*
X553758D01*
X553158Y159600D02*
Y160800D01*
X528500Y155400D02*
X529700D01*
X529100Y154800D02*
Y156000D01*
X531800Y155400D02*
X533000D01*
X532400Y154800D02*
Y156000D01*
X528500Y152100D02*
X529700D01*
X529100Y151500D02*
Y152700D01*
X531800Y152100D02*
X533000D01*
X532400Y151500D02*
Y152700D01*
X587657Y183800D02*
X588858D01*
X588258Y183200D02*
Y184400D01*
X590957Y183800D02*
X592158D01*
X591558Y183200D02*
Y184400D01*
X587657Y180500D02*
X588858D01*
X588258Y179900D02*
Y181100D01*
X590957Y180500D02*
X592158D01*
X591558Y179900D02*
Y181100D01*
X587657Y203800D02*
X588858D01*
X588258Y203200D02*
Y204400D01*
X590957Y203800D02*
X592158D01*
X591558Y203200D02*
Y204400D01*
X587657Y200500D02*
X588858D01*
X588258Y199900D02*
Y201100D01*
X590957Y200500D02*
X592158D01*
X591558Y199900D02*
Y201100D01*
X587657Y265800D02*
X588858D01*
X588258Y265200D02*
Y266400D01*
X590957Y265800D02*
X592158D01*
X591558Y265200D02*
Y266400D01*
X587657Y262500D02*
X588858D01*
X588258Y261900D02*
Y263100D01*
X590957Y262500D02*
X592158D01*
X591558Y261900D02*
Y263100D01*
X587657Y225800D02*
X588858D01*
X588258Y225200D02*
Y226400D01*
X590957Y225800D02*
X592158D01*
X591558Y225200D02*
Y226400D01*
X587657Y222500D02*
X588858D01*
X588258Y221900D02*
Y223100D01*
X590957Y222500D02*
X592158D01*
X591558Y221900D02*
Y223100D01*
X590957Y215800D02*
X592158D01*
X591558Y215200D02*
Y216400D01*
X590957Y212500D02*
X592158D01*
X591558Y211900D02*
Y213100D01*
X587657Y193800D02*
X588858D01*
X588258Y193200D02*
Y194400D01*
X590957Y193800D02*
X592158D01*
X591558Y193200D02*
Y194400D01*
X587657Y190500D02*
X588858D01*
X588258Y189900D02*
Y191100D01*
X590957Y190500D02*
X592158D01*
X591558Y189900D02*
Y191100D01*
X587657Y255800D02*
X588858D01*
X588258Y255200D02*
Y256400D01*
X590957Y255800D02*
X592158D01*
X591558Y255200D02*
Y256400D01*
X587657Y252500D02*
X588858D01*
X588258Y251900D02*
Y253100D01*
X590957Y252500D02*
X592158D01*
X591558Y251900D02*
Y253100D01*
X582900Y241800D02*
X584100D01*
X583500Y241200D02*
Y242400D01*
X571752Y244800D02*
X572952D01*
X572352Y244200D02*
Y245400D01*
X568800Y244800D02*
X570000D01*
X569400Y244200D02*
Y245400D01*
X544716Y275700D02*
X545916D01*
X545316Y275100D02*
Y276300D01*
X561600Y257100D02*
X562800D01*
X562200Y256500D02*
Y257700D01*
X559200Y255300D02*
X560400D01*
X559800Y254700D02*
Y255900D01*
X552600Y264417D02*
X553800D01*
X553200Y263817D02*
Y265017D01*
X554558Y262200D02*
X555758D01*
X555158Y261600D02*
Y262800D01*
X428663Y298537D02*
X429863D01*
X429263Y297937D02*
Y299137D01*
X452700Y293500D02*
X455100D01*
X453900Y292300D02*
Y294700D01*
X594300Y276300D02*
X595500D01*
X594900Y275700D02*
Y276900D01*
X465733Y199633D02*
X466933D01*
X466333Y199033D02*
Y200233D01*
X435433Y200100D02*
X436633D01*
X436033Y199500D02*
Y200700D01*
X428663Y287700D02*
X429863D01*
X429263Y287100D02*
Y288300D01*
X428663Y317700D02*
X429863D01*
X429263Y317100D02*
Y318300D01*
X546684Y250800D02*
X547884D01*
X547284Y250200D02*
Y251400D01*
X544716Y264742D02*
X545916D01*
X545316Y264142D02*
Y265342D01*
X542544Y266792D02*
X543744D01*
X543144Y266192D02*
Y267392D01*
X540493Y268843D02*
X541693D01*
X541093Y268243D02*
Y269443D01*
X550500Y236700D02*
X551700D01*
X551100Y236100D02*
Y237300D01*
X523500Y282000D02*
X524700D01*
X524100Y281400D02*
Y282600D01*
X523500Y286500D02*
X524700D01*
X524100Y285900D02*
Y287100D01*
X534300Y289800D02*
X535500D01*
X534900Y289200D02*
Y290400D01*
X525600Y301500D02*
X526800D01*
X526200Y300900D02*
Y302100D01*
X454800Y272050D02*
X456000D01*
X455400Y271450D02*
Y272650D01*
X496500Y204600D02*
X497700D01*
X497100Y204000D02*
Y205200D01*
X461400Y256300D02*
X462600D01*
X462000Y255700D02*
Y256900D01*
X461400Y253100D02*
X462600D01*
X462000Y252500D02*
Y253700D01*
X461400Y246700D02*
X462600D01*
X462000Y246100D02*
Y247300D01*
X461400Y249900D02*
X462600D01*
X462000Y249300D02*
Y250500D01*
X544716Y268863D02*
X545916D01*
X545316Y268263D02*
Y269463D01*
X544716Y272800D02*
X545916D01*
X545316Y272200D02*
Y273400D01*
X571800Y262800D02*
X573000D01*
X572400Y262200D02*
Y263400D01*
X568400Y272600D02*
X569600D01*
X569000Y272000D02*
Y273200D01*
X568400Y275500D02*
X569600D01*
X569000Y274900D02*
Y276100D01*
X568400Y269700D02*
X569600D01*
X569000Y269100D02*
Y270300D01*
X574200Y280490D02*
X575400D01*
X574800Y279890D02*
Y281090D01*
X572051Y278449D02*
X573251D01*
X572651Y277849D02*
Y279049D01*
X499800Y266100D02*
X502200D01*
X501000Y264900D02*
Y267300D01*
X417000Y311700D02*
X419400D01*
X418200Y310500D02*
Y312900D01*
X500194Y304500D02*
X502594D01*
X501394Y303300D02*
Y305700D01*
X489300Y323700D02*
X490500D01*
X489900Y323100D02*
Y324300D01*
X481800Y318000D02*
X483000D01*
X482400Y317400D02*
Y318600D01*
X484500Y319500D02*
X485700D01*
X485100Y318900D02*
Y320100D01*
X486900Y321600D02*
X488100D01*
X487500Y321000D02*
Y322200D01*
X406200Y313200D02*
X408600D01*
X407400Y312000D02*
Y314400D01*
X426600Y333000D02*
X429000D01*
X427800Y331800D02*
Y334200D01*
X564300Y311400D02*
X565500D01*
X564900Y310800D02*
Y312000D01*
X551100Y303300D02*
X552300D01*
X551700Y302700D02*
Y303900D01*
X546857Y299057D02*
X548057D01*
X547457Y298457D02*
Y299657D01*
X548979Y301179D02*
X550179D01*
X549579Y300579D02*
Y301779D01*
X556500Y296100D02*
X557700D01*
X557100Y295500D02*
Y296700D01*
X556500Y299100D02*
X557700D01*
X557100Y298500D02*
Y299700D01*
X556527Y302100D02*
X557727D01*
X557127Y301500D02*
Y302700D01*
X520500Y280600D02*
X521700D01*
X521100Y280000D02*
Y281200D01*
X559200Y288666D02*
X560400D01*
X559800Y288066D02*
Y289266D01*
X538800Y284427D02*
X540000D01*
X539400Y283827D02*
Y285027D01*
X478800Y279900D02*
X480000D01*
X479400Y279300D02*
Y280500D01*
X481700Y279900D02*
X482900D01*
X482300Y279300D02*
Y280500D01*
X553230Y209476D02*
X562285D01*
X557758Y204948D02*
Y214003D01*
X387598Y350394D02*
X399803D01*
X393701Y344291D02*
Y356496D01*
X580512Y350394D02*
X592717D01*
X586614Y344291D02*
Y356496D01*
X580512Y157480D02*
X592717D01*
X586614Y151378D02*
Y163583D01*
X415357Y347271D02*
X424413D01*
X419885Y342743D02*
Y351798D01*
X405817Y338583D02*
X418022D01*
X411920Y332480D02*
Y344685D01*
X563298Y338583D02*
X575502D01*
X569400Y332480D02*
Y344685D01*
X563298Y157480D02*
X575502D01*
X569400Y151378D02*
Y163583D01*
X405817Y158118D02*
X418022D01*
X411920Y152016D02*
Y164220D01*
X387598Y157480D02*
X399803D01*
X393701Y151378D02*
Y163583D01*
D12*
X536943Y178510D02*
Y192290D01*
X529857Y178510D02*
Y192290D01*
X536943D01*
X529857Y178510D02*
X536943D01*
X463013Y200842D02*
X477187D01*
X463013Y216590D02*
X477187D01*
X463013Y200842D02*
Y216590D01*
X477187Y200842D02*
Y216590D01*
X480010Y193623D02*
Y208977D01*
X493790Y193623D02*
Y208977D01*
X480010Y193623D02*
X493790D01*
X480010Y208977D02*
X493790D01*
X553623Y321890D02*
X568977D01*
X553623Y308110D02*
X568977D01*
X553623D02*
Y321890D01*
X568977Y308110D02*
Y321890D01*
X426310Y315057D02*
X440090D01*
X426310Y322143D02*
X440090D01*
Y315057D02*
Y322143D01*
X426310Y315057D02*
Y322143D01*
X406623Y302541D02*
X421977D01*
X406623Y288761D02*
X421977D01*
X406623D02*
Y302541D01*
X421977Y288761D02*
Y302541D01*
X406623Y288294D02*
X421977D01*
X406623Y274515D02*
X421977D01*
X406623D02*
Y288294D01*
X421977Y274515D02*
Y288294D01*
X406623Y245553D02*
X421977D01*
X406623Y231773D02*
X421977D01*
X406623D02*
Y245553D01*
X421977Y231773D02*
Y245553D01*
X406623Y231306D02*
X421977D01*
X406623Y217527D02*
X421977D01*
X406623D02*
Y231306D01*
X421977Y217527D02*
Y231306D01*
X406623Y274047D02*
X421977D01*
X406623Y260267D02*
X421977D01*
X406623D02*
Y274047D01*
X421977Y260267D02*
Y274047D01*
X406623Y259800D02*
X421977D01*
X406623Y246021D02*
X421977D01*
X406623D02*
Y259800D01*
X421977Y246021D02*
Y259800D01*
X553770Y170410D02*
Y184190D01*
X538416Y170410D02*
Y184190D01*
Y170410D02*
X553770D01*
X538416Y184190D02*
X553770D01*
X525828Y253128D02*
X566772D01*
X525828Y294072D02*
X566772D01*
X525828Y253128D02*
Y294072D01*
X566772Y253128D02*
Y294072D01*
M02*
