G04*
G04 #@! TF.GenerationSoftware,Altium Limited,Altium Designer,18.1.9 (240)*
G04*
G04 Layer_Color=65535*
%FSLAX25Y25*%
%MOIN*%
G70*
G01*
G75*
%ADD10C,0.00591*%
%ADD11C,0.00984*%
%ADD12C,0.02362*%
%ADD13C,0.01000*%
%ADD14C,0.00787*%
%ADD15C,0.00819*%
%ADD16C,0.00800*%
%ADD17C,0.00500*%
%ADD18C,0.00394*%
%ADD19C,0.00600*%
%ADD20C,0.00591*%
%ADD21C,0.00630*%
D10*
X523768Y176594D02*
G03*
X523768Y176594I-1181J0D01*
G01*
X495819Y176559D02*
G03*
X495819Y176559I-1181J0D01*
G01*
D11*
X463506Y203991D02*
G03*
X463506Y203991I-492J0D01*
G01*
X494380Y205040D02*
G03*
X494380Y205040I-492J0D01*
G01*
X565532Y308012D02*
G03*
X565532Y308012I-492J0D01*
G01*
X418532Y288663D02*
G03*
X418532Y288663I-492J0D01*
G01*
Y274416D02*
G03*
X418532Y274416I-492J0D01*
G01*
Y231675D02*
G03*
X418532Y231675I-492J0D01*
G01*
Y217428D02*
G03*
X418532Y217428I-492J0D01*
G01*
Y260169D02*
G03*
X418532Y260169I-492J0D01*
G01*
Y245922D02*
G03*
X418532Y245922I-492J0D01*
G01*
X550326Y170312D02*
G03*
X550326Y170312I-492J0D01*
G01*
X533210Y257655D02*
G03*
X533210Y257655I-492J0D01*
G01*
D12*
X540591Y266710D02*
G03*
X540591Y266710I-1181J0D01*
G01*
D13*
X403442Y157200D02*
G03*
X403442Y157200I-9842J0D01*
G01*
X567600Y248400D02*
X567600Y204600D01*
X534600Y199633D02*
X558300D01*
X564976Y303200D02*
X568576D01*
Y308200D01*
X564976D02*
X568576D01*
X557376D02*
X560976D01*
X557376Y303200D02*
X560976D01*
X557376D02*
Y308200D01*
Y327400D02*
X560976D01*
X557376Y322400D02*
Y327400D01*
Y322400D02*
X560976D01*
X564976D02*
X568576D01*
X564976Y327400D02*
X568576D01*
Y322400D02*
Y327400D01*
X390600Y328712D02*
X395324D01*
Y268869D02*
Y328712D01*
X385876Y268869D02*
X395324D01*
X385876D02*
Y326350D01*
X388238Y328712D01*
X390600D01*
X532700Y200584D02*
Y205584D01*
X529100D02*
X532700D01*
X529100Y200584D02*
X532700D01*
X521500D02*
X525100D01*
X521500D02*
Y205584D01*
X525100D01*
X508900Y204784D02*
X509700Y205584D01*
X507800Y204784D02*
X508900D01*
X509000Y200884D02*
X509700Y200184D01*
X507800Y200884D02*
X509000D01*
X507800D02*
Y204784D01*
X509700Y200184D02*
Y205584D01*
Y200184D02*
X513900D01*
X516700D02*
X521100D01*
Y205584D01*
X516900D02*
X521100D01*
X509700D02*
X513900D01*
X525918Y151238D02*
X528280Y148876D01*
X555839D01*
Y158324D01*
X525918D02*
X555839D01*
X525918Y151238D02*
Y158324D01*
X537040Y325500D02*
X541961D01*
X537040Y306900D02*
X541961D01*
X504560D02*
X509481D01*
X504560Y325500D02*
X509481D01*
X504560Y306900D02*
Y325500D01*
X541961Y306900D02*
Y325500D01*
X509481D02*
X537040D01*
X509481Y306900D02*
X537040D01*
X494800Y206942D02*
Y211942D01*
Y206942D02*
X498400D01*
X494800Y211942D02*
X498400D01*
X502400D02*
X506000D01*
Y206942D02*
Y211942D01*
X502400Y206942D02*
X506000D01*
Y213200D02*
Y218200D01*
X502400D02*
X506000D01*
X502400Y213200D02*
X506000D01*
X494800D02*
X498400D01*
X494800D02*
Y218200D01*
X498400D01*
X444681Y347426D02*
X472240D01*
X444681Y328826D02*
X472240D01*
X439760D02*
Y347426D01*
X477161Y328826D02*
Y347426D01*
X472240Y328826D02*
X477161D01*
X472240Y347426D02*
X477161D01*
X439760D02*
X444681D01*
X439760Y328826D02*
X444681D01*
X443819Y192409D02*
X528465D01*
X443819Y162094D02*
X528465D01*
Y192409D01*
X443819Y162094D02*
Y192409D01*
X521500Y200100D02*
X525100D01*
X521500Y195100D02*
Y200100D01*
Y195100D02*
X525100D01*
X529100D02*
X532700D01*
X529100Y200100D02*
X532700D01*
Y195100D02*
Y200100D01*
X506000Y202416D02*
Y207416D01*
X502400D02*
X506000D01*
X502400Y202416D02*
X506000D01*
X494800D02*
X498400D01*
X494800D02*
Y207416D01*
X498400D01*
X509700Y200100D02*
X513900D01*
X516900D02*
X521100D01*
Y194700D02*
Y200100D01*
X516700Y194700D02*
X521100D01*
X509700D02*
X513900D01*
X509700D02*
Y200100D01*
X507800Y195400D02*
Y199300D01*
Y195400D02*
X509000D01*
X509700Y194700D01*
X507800Y199300D02*
X508900D01*
X509700Y200100D01*
X582800Y260632D02*
Y265633D01*
X579200D02*
X582800D01*
X579200Y260632D02*
X582800D01*
X571600D02*
X575200D01*
X571600D02*
Y265633D01*
X575200D01*
X582800Y266665D02*
Y271665D01*
X579200D02*
X582800D01*
X579200Y266665D02*
X582800D01*
X571600D02*
X575200D01*
X571600D02*
Y271665D01*
X575200D01*
X561872Y253708D02*
X564418Y256254D01*
X561872Y253708D02*
X565408Y250172D01*
X567953Y252718D01*
X570782Y255546D02*
X573328Y258092D01*
X569792Y261628D02*
X573328Y258092D01*
X567246Y259082D02*
X569792Y261628D01*
X566186Y257314D02*
X569014Y254486D01*
X509500Y267200D02*
Y272200D01*
Y267200D02*
X513100D01*
X509500Y272200D02*
X513100D01*
X517100D02*
X520700D01*
Y267200D02*
Y272200D01*
X517100Y267200D02*
X520700D01*
X565408Y296926D02*
X567953Y294380D01*
X561872Y293390D02*
X565408Y296926D01*
X561872Y293390D02*
X564418Y290844D01*
X567246Y288016D02*
X569792Y285471D01*
X573328Y289006D01*
X570782Y291552D02*
X573328Y289006D01*
X566186Y289784D02*
X569014Y292612D01*
X527347Y252018D02*
X529892Y249472D01*
X533428Y253008D01*
X530882Y255554D02*
X533428Y253008D01*
X525508Y260928D02*
X528054Y258382D01*
X521972Y257392D02*
X525508Y260928D01*
X521972Y257392D02*
X524518Y254847D01*
X526286Y253786D02*
X529114Y256614D01*
X438100Y223400D02*
Y227000D01*
X433100D02*
X438100D01*
X433100Y223400D02*
Y227000D01*
Y215800D02*
Y219400D01*
X438100Y215800D02*
Y219400D01*
X433100Y215800D02*
X438100D01*
Y250280D02*
Y253880D01*
X433100D02*
X438100D01*
X433100Y250280D02*
Y253880D01*
Y242680D02*
Y246280D01*
X438100Y242680D02*
Y246280D01*
X433100Y242680D02*
X438100D01*
Y263720D02*
Y267320D01*
X433100D02*
X438100D01*
X433100Y263720D02*
Y267320D01*
Y256120D02*
Y259720D01*
X438100Y256120D02*
Y259720D01*
X433100Y256120D02*
X438100D01*
X589800Y208488D02*
X592162D01*
X594524Y210850D01*
Y268331D01*
X585076D02*
X594524D01*
X585076Y208488D02*
Y268331D01*
Y208488D02*
X589800D01*
X433100Y280760D02*
X438100D01*
X433100Y277160D02*
Y280760D01*
X438100Y277160D02*
Y280760D01*
Y269560D02*
Y273160D01*
X433100Y269560D02*
X438100D01*
X433100D02*
Y273160D01*
Y294200D02*
X438100D01*
X433100Y290600D02*
Y294200D01*
X438100Y290600D02*
Y294200D01*
Y283000D02*
Y286600D01*
X433100Y283000D02*
X438100D01*
X433100D02*
Y286600D01*
Y240440D02*
X438100D01*
X433100Y236840D02*
Y240440D01*
X438100Y236840D02*
Y240440D01*
Y229240D02*
Y232840D01*
X433100Y229240D02*
X438100D01*
X433100D02*
Y232840D01*
X410042Y199633D02*
Y215800D01*
Y348000D02*
Y357113D01*
X567523Y349200D02*
Y357113D01*
X567861Y282905D02*
X567900Y263400D01*
X410042Y357113D02*
X424800D01*
X556800Y357113D02*
X567523D01*
X410042Y199633D02*
X460800D01*
X445876Y151238D02*
Y158324D01*
X525403D01*
Y148876D02*
Y158324D01*
X449025Y148876D02*
X525403D01*
X448238D02*
X449025D01*
X445876Y151238D02*
X448238Y148876D01*
X504560Y334800D02*
X509481D01*
X504560Y353400D02*
X509481D01*
X537040D02*
X541961D01*
X537040Y334800D02*
X541961D01*
Y353400D01*
X504560Y334800D02*
Y353400D01*
X509481Y334800D02*
X537040D01*
X509481Y353400D02*
X537040D01*
X540193Y188800D02*
X543793D01*
X540193Y183800D02*
Y188800D01*
Y183800D02*
X543793D01*
X547793D02*
X551393D01*
X547793Y188800D02*
X551393D01*
Y183800D02*
Y188800D01*
X547793Y165500D02*
X551393D01*
Y170500D01*
X547793D02*
X551393D01*
X540193D02*
X543793D01*
X540193Y165500D02*
X543793D01*
X540193D02*
Y170500D01*
X540193Y194072D02*
X543793D01*
X540193Y189072D02*
Y194072D01*
Y189072D02*
X543793D01*
X547793D02*
X551393D01*
X547793Y194072D02*
X551393D01*
Y189072D02*
Y194072D01*
X390600Y268412D02*
X395324D01*
Y208569D02*
Y268412D01*
X385876Y208569D02*
X395324D01*
X385876D02*
Y266050D01*
X388238Y268412D01*
X390600D01*
X585076Y177276D02*
X592162D01*
X585076D02*
Y207197D01*
X594524D01*
Y179638D02*
Y207197D01*
X592162Y177276D02*
X594524Y179638D01*
X554385Y241200D02*
X558385D01*
X558885Y235600D02*
Y239200D01*
X553885Y235600D02*
X558885D01*
X553885D02*
Y239200D01*
Y243200D02*
Y246800D01*
X558885D01*
Y243200D02*
Y246800D01*
X529785Y241200D02*
X533785D01*
X534285Y235600D02*
Y239200D01*
X529285Y235600D02*
X534285D01*
X529285D02*
Y239200D01*
Y243200D02*
Y246800D01*
X534285D01*
Y243200D02*
Y246800D01*
X529785Y229800D02*
X533785D01*
X529285Y231800D02*
Y235400D01*
X534285D01*
Y231800D02*
Y235400D01*
Y224200D02*
Y227800D01*
X529285Y224200D02*
X534285D01*
X529285D02*
Y227800D01*
X571201Y202150D02*
X576201D01*
X571201Y198550D02*
Y202150D01*
X576201Y198550D02*
Y202150D01*
Y190950D02*
Y194550D01*
X571201Y190950D02*
X576201D01*
X571201D02*
Y194550D01*
X566402Y202150D02*
X571402D01*
X566402Y198550D02*
Y202150D01*
X571402Y198550D02*
Y202150D01*
Y190950D02*
Y194550D01*
X566402Y190950D02*
X571402D01*
X566402D02*
Y194550D01*
X561281Y179400D02*
Y183600D01*
Y186600D02*
Y190800D01*
X566681D01*
Y186400D02*
Y190800D01*
Y179400D02*
Y183600D01*
X561281Y179400D02*
X566681D01*
X562081Y177500D02*
X565981D01*
Y178700D01*
X566681Y179400D01*
X562081Y177500D02*
Y178600D01*
X561281Y179400D02*
X562081Y178600D01*
X571001Y179400D02*
X571801Y178600D01*
Y177500D02*
Y178600D01*
X575701Y178700D02*
X576401Y179400D01*
X575701Y177500D02*
Y178700D01*
X571801Y177500D02*
X575701D01*
X571001Y179400D02*
X576401D01*
Y183600D01*
Y186400D02*
Y190800D01*
X571001D02*
X576401D01*
X571001Y186600D02*
Y190800D01*
Y179400D02*
Y183600D01*
X566202Y179400D02*
X567002Y178600D01*
Y177500D02*
Y178600D01*
X570902Y178700D02*
X571602Y179400D01*
X570902Y177500D02*
Y178700D01*
X567002Y177500D02*
X570902D01*
X566202Y179400D02*
X571602D01*
Y183600D01*
Y186400D02*
Y190800D01*
X566202D02*
X571602D01*
X566202Y186600D02*
Y190800D01*
Y179400D02*
Y183600D01*
X561481Y190950D02*
Y194550D01*
Y190950D02*
X566481D01*
Y194550D01*
Y198550D02*
Y202150D01*
X561481Y198550D02*
Y202150D01*
X566481D01*
X553885Y235400D02*
X558885D01*
X553885Y231800D02*
Y235400D01*
X558885Y231800D02*
Y235400D01*
Y224200D02*
Y227800D01*
X553885Y224200D02*
X558885D01*
X553885D02*
Y227800D01*
D14*
X575200Y278500D02*
X595200D01*
X575200D02*
Y338500D01*
X595200D01*
Y278500D02*
Y338500D01*
X529400Y177900D02*
Y182900D01*
Y177900D02*
X537400D01*
Y182900D01*
Y187900D02*
Y192900D01*
X529400D02*
X537400D01*
X529400Y187900D02*
Y192900D01*
X463998Y207732D02*
Y209700D01*
X476202Y207732D02*
Y209700D01*
X463998Y207732D02*
X476202D01*
X463998Y209700D02*
X476202D01*
X480995Y198643D02*
X484242D01*
X480995D02*
Y200611D01*
X489558Y198643D02*
X492805D01*
Y200611D01*
X558642Y317657D02*
Y320905D01*
X560611D01*
X558642Y309095D02*
Y312343D01*
Y309095D02*
X560611D01*
X425700Y322600D02*
X430700D01*
X425700Y314600D02*
Y322600D01*
Y314600D02*
X430700D01*
X435700D02*
X440700D01*
Y322600D01*
X435700D02*
X440700D01*
X411643Y298309D02*
Y301557D01*
X413611D01*
X411643Y289746D02*
Y292994D01*
Y289746D02*
X413611D01*
X411643Y284062D02*
Y287310D01*
X413611D01*
X411643Y275499D02*
Y278747D01*
Y275499D02*
X413611D01*
X411643Y241321D02*
Y244569D01*
X413611D01*
X411643Y232758D02*
Y236006D01*
Y232758D02*
X413611D01*
X411643Y227074D02*
Y230322D01*
X413611D01*
X411643Y218511D02*
Y221759D01*
Y218511D02*
X413611D01*
X411643Y269815D02*
Y273063D01*
X413611D01*
X411643Y261252D02*
Y264500D01*
Y261252D02*
X413611D01*
X411643Y255568D02*
Y258816D01*
X413611D01*
X411643Y247005D02*
Y250253D01*
Y247005D02*
X413611D01*
X543436Y171395D02*
X545404D01*
X543436D02*
Y174643D01*
Y183205D02*
X545404D01*
X543436Y179957D02*
Y183205D01*
X535473Y262773D02*
X557127D01*
X535473Y284427D02*
X557127D01*
X535473Y262773D02*
Y284427D01*
X557127Y262773D02*
Y284427D01*
X572209Y218448D02*
Y214512D01*
X574177D01*
X574832Y215168D01*
Y215824D01*
X574177Y216480D01*
X572209D01*
X574177D01*
X574832Y217136D01*
Y217792D01*
X574177Y218448D01*
X572209D01*
X576144Y214512D02*
Y217136D01*
X577456Y218448D01*
X578768Y217136D01*
Y214512D01*
Y216480D01*
X576144D01*
X580080Y218448D02*
X582704D01*
X581392D01*
Y214512D01*
X572209Y226012D02*
X572865Y226668D01*
X574177D01*
X574832Y226012D01*
Y225357D01*
X574177Y224701D01*
X573521D01*
X574177D01*
X574832Y224045D01*
Y223389D01*
X574177Y222733D01*
X572865D01*
X572209Y223389D01*
X576144Y225357D02*
X577456Y222733D01*
X578768Y225357D01*
X580080Y226012D02*
X580736Y226668D01*
X582048D01*
X582704Y226012D01*
Y225357D01*
X582048Y224701D01*
X581392D01*
X582048D01*
X582704Y224045D01*
Y223389D01*
X582048Y222733D01*
X580736D01*
X580080Y223389D01*
X574832Y234233D02*
X574177Y234889D01*
X572865D01*
X572209Y234233D01*
Y233577D01*
X572865Y232921D01*
X574177D01*
X574832Y232265D01*
Y231609D01*
X574177Y230953D01*
X572865D01*
X572209Y231609D01*
X576144Y234889D02*
X577456D01*
X576800D01*
Y230953D01*
X576144D01*
X577456D01*
X579424D02*
Y234889D01*
X581392D01*
X582048Y234233D01*
Y232921D01*
X581392Y232265D01*
X579424D01*
X580736D02*
X582048Y230953D01*
X574832Y258894D02*
X574177Y259550D01*
X572865D01*
X572209Y258894D01*
Y256270D01*
X572865Y255614D01*
X574177D01*
X574832Y256270D01*
Y257582D01*
X573521D01*
X576144Y255614D02*
Y259550D01*
X578768Y255614D01*
Y259550D01*
X580080D02*
Y255614D01*
X582048D01*
X582704Y256270D01*
Y258894D01*
X582048Y259550D01*
X580080D01*
X574832Y251330D02*
X572209D01*
Y249362D01*
X573521Y250018D01*
X574177D01*
X574832Y249362D01*
Y248050D01*
X574177Y247394D01*
X572865D01*
X572209Y248050D01*
X576144Y251330D02*
Y248706D01*
X577456Y247394D01*
X578768Y248706D01*
Y251330D01*
X574832Y242453D02*
X574177Y243109D01*
X572865D01*
X572209Y242453D01*
Y241797D01*
X572865Y241141D01*
X574177D01*
X574832Y240485D01*
Y239829D01*
X574177Y239174D01*
X572865D01*
X572209Y239829D01*
X576144Y243109D02*
X578768D01*
X577456D01*
Y239174D01*
X580080D02*
Y243109D01*
X582048D01*
X582704Y242453D01*
Y241141D01*
X582048Y240485D01*
X580080D01*
D15*
X459787Y168063D02*
Y172264D01*
X459846Y182291D02*
Y186311D01*
D16*
X522587Y171949D02*
X522598Y175284D01*
X495701Y177657D02*
X522642Y182224D01*
X494583Y175264D02*
X494594Y171748D01*
X455847Y186311D02*
X459846D01*
X455724Y168000D02*
X459724D01*
X457890Y172264D02*
X461890D01*
Y182264D01*
X457890D02*
X461890D01*
X457890Y178264D02*
Y182264D01*
Y172264D02*
Y178264D01*
X397488Y321859D02*
X399374Y323744D01*
X398431Y322801D01*
X401259Y319974D01*
X403144Y321859D02*
X404086Y322801D01*
X403615Y322330D01*
X400787Y325158D01*
Y324215D01*
X405028Y328456D02*
X404086D01*
X403144Y327514D01*
Y326571D01*
X405028Y324686D01*
X405971D01*
X406914Y325629D01*
Y326571D01*
X408327Y327043D02*
X409270Y327985D01*
X408799Y327514D01*
X405971Y330341D01*
Y329399D01*
X397488Y302514D02*
X399374Y304399D01*
X398431Y303456D01*
X401259Y300628D01*
X403144Y302514D02*
X404086Y303456D01*
X403615Y302985D01*
X400787Y305812D01*
Y304870D01*
X405028Y309111D02*
X404086D01*
X403144Y308169D01*
Y307226D01*
X405028Y305341D01*
X405971D01*
X406914Y306284D01*
Y307226D01*
X405971Y310054D02*
Y310996D01*
X406914Y311939D01*
X407856D01*
X408327Y311467D01*
Y310525D01*
X407856Y310054D01*
X408327Y310525D01*
X409270D01*
X409741Y310054D01*
Y309111D01*
X408799Y308169D01*
X407856D01*
X397488Y292841D02*
X399374Y294726D01*
X398431Y293783D01*
X401259Y290956D01*
X403144Y292841D02*
X404086Y293783D01*
X403615Y293312D01*
X400787Y296140D01*
Y295197D01*
X405028Y299438D02*
X404086D01*
X403144Y298496D01*
Y297553D01*
X405028Y295668D01*
X405971D01*
X406914Y296611D01*
Y297553D01*
X409741Y299438D02*
X406914Y302266D01*
X406914Y299438D01*
X408799Y301323D01*
X575066Y204259D02*
X574399Y204926D01*
X573066D01*
X572400Y204259D01*
Y201593D01*
X573066Y200927D01*
X574399D01*
X575066Y201593D01*
Y202926D01*
X573733D01*
X576399Y200927D02*
Y204926D01*
X579065Y200927D01*
Y204926D01*
X580397D02*
Y200927D01*
X582397D01*
X583063Y201593D01*
Y204259D01*
X582397Y204926D01*
X580397D01*
X399845Y284582D02*
X398902D01*
X397960Y283640D01*
Y282697D01*
X399845Y280812D01*
X400787D01*
X401730Y281754D01*
Y282697D01*
X400787Y283640D01*
X399845Y282697D01*
X403144Y283168D02*
X400316Y285996D01*
X405028Y285053D01*
X402201Y287881D01*
X403144Y288823D02*
X405971Y285996D01*
X407385Y287409D01*
Y288352D01*
X405500Y290237D01*
X404557D01*
X403144Y288823D01*
X577001Y191000D02*
X577668Y190334D01*
X579001D01*
X579667Y191000D01*
Y193666D01*
X579001Y194333D01*
X577668D01*
X577001Y193666D01*
Y193000D01*
X577668Y192333D01*
X579667D01*
X581000Y193000D02*
X582333Y190334D01*
X583666Y193000D01*
X577201Y180200D02*
Y182866D01*
X578534Y184199D01*
X579867Y182866D01*
Y180200D01*
Y182199D01*
X577201D01*
X581200Y184199D02*
Y181533D01*
X582533Y180200D01*
X583866Y181533D01*
Y184199D01*
X399845Y274909D02*
X398902D01*
X397960Y273967D01*
Y273024D01*
X399845Y271139D01*
X400787D01*
X401730Y272082D01*
Y273024D01*
X400787Y273967D01*
X399845Y273024D01*
X403144Y273496D02*
X400316Y276323D01*
X405028Y275381D01*
X402201Y278208D01*
X403144Y279151D02*
X405971Y276323D01*
X407385Y277737D01*
Y278679D01*
X405500Y280564D01*
X404557D01*
X403144Y279151D01*
X397488Y312186D02*
X399374Y314071D01*
X398431Y313129D01*
X401259Y310301D01*
X403144Y312186D02*
X404086Y313129D01*
X403615Y312657D01*
X400787Y315485D01*
Y314543D01*
X405028Y318784D02*
X404086D01*
X403144Y317841D01*
Y316899D01*
X405028Y315014D01*
X405971D01*
X406914Y315956D01*
Y316899D01*
X410212Y319255D02*
X408327Y317370D01*
Y321140D01*
X407856Y321611D01*
X406914D01*
X405971Y320669D01*
Y319726D01*
D17*
X390400Y147291D02*
X440000D01*
X390400Y197291D02*
X440000D01*
Y147291D02*
Y197291D01*
X390400Y147291D02*
Y197291D01*
X534885Y224200D02*
Y240200D01*
Y224200D02*
X553885D01*
Y240200D01*
X534885D02*
X553885D01*
D18*
X534885Y247103D02*
X553885D01*
Y240103D02*
Y247103D01*
X534885Y240103D02*
Y247103D01*
Y240103D02*
X553885D01*
D19*
X545385Y241603D02*
Y245603D01*
X543385D02*
X545385D01*
X543385Y241603D02*
Y245603D01*
Y241603D02*
X545385D01*
X546885D02*
Y245603D01*
X541885Y241603D02*
Y245603D01*
X540885Y243603D02*
X541885D01*
X546885D02*
X547885D01*
D20*
X570573Y296400D02*
X573328D01*
Y297778D01*
X572868Y298237D01*
X572409D01*
X571950Y297778D01*
Y296400D01*
Y297778D01*
X571491Y298237D01*
X571032D01*
X570573Y297778D01*
Y296400D01*
X573328Y299155D02*
Y300073D01*
Y299614D01*
X570573D01*
Y299155D01*
X571491Y301451D02*
X572868D01*
X573328Y301910D01*
Y303288D01*
X571491D01*
X573328Y305583D02*
Y304665D01*
X572868Y304206D01*
X571950D01*
X571491Y304665D01*
Y305583D01*
X571950Y306043D01*
X572409D01*
Y304206D01*
X570573Y306961D02*
Y308798D01*
Y307879D01*
X573328D01*
Y310175D02*
Y311093D01*
X572868Y311553D01*
X571950D01*
X571491Y311093D01*
Y310175D01*
X571950Y309716D01*
X572868D01*
X573328Y310175D01*
Y312930D02*
Y313848D01*
X572868Y314308D01*
X571950D01*
X571491Y313848D01*
Y312930D01*
X571950Y312471D01*
X572868D01*
X573328Y312930D01*
X571032Y315685D02*
X571491D01*
Y315226D01*
Y316144D01*
Y315685D01*
X572868D01*
X573328Y316144D01*
X570573Y317522D02*
X573328D01*
X571950D01*
X571491Y317981D01*
Y318899D01*
X571950Y319358D01*
X573328D01*
X582200Y275337D02*
Y273500D01*
X580363Y275337D01*
X579904D01*
X579445Y274878D01*
Y273959D01*
X579904Y273500D01*
X592200D02*
Y274418D01*
Y273959D01*
X589445D01*
X589904Y273500D01*
X592200Y341500D02*
Y342418D01*
Y341959D01*
X589445D01*
X589904Y341500D01*
X592200Y345500D02*
Y346418D01*
Y345959D01*
X589445D01*
X589904Y345500D01*
X582200Y341500D02*
Y342418D01*
Y341959D01*
X579445D01*
X579904Y341500D01*
X582200Y345633D02*
Y343796D01*
X580363Y345633D01*
X579904D01*
X579445Y345173D01*
Y344255D01*
X579904Y343796D01*
X551568Y304094D02*
Y306849D01*
X552946D01*
X553405Y306390D01*
Y305471D01*
X552946Y305012D01*
X551568D01*
X552487D02*
X553405Y304094D01*
X555701D02*
Y306849D01*
X554323Y305471D01*
X556160D01*
X551568Y323674D02*
Y326429D01*
X552946D01*
X553405Y325970D01*
Y325052D01*
X552946Y324593D01*
X551568D01*
X552487D02*
X553405Y323674D01*
X556160Y326429D02*
X554323D01*
Y325052D01*
X555242Y325511D01*
X555701D01*
X556160Y325052D01*
Y324133D01*
X555701Y323674D01*
X554782D01*
X554323Y324133D01*
X384600Y330809D02*
Y333564D01*
X385518Y332645D01*
X386437Y333564D01*
Y330809D01*
X387814D02*
X388733D01*
X389192Y331268D01*
Y332186D01*
X388733Y332645D01*
X387814D01*
X387355Y332186D01*
Y331268D01*
X387814Y330809D01*
X390569Y333104D02*
Y332645D01*
X390110D01*
X391028D01*
X390569D01*
Y331268D01*
X391028Y330809D01*
X392865D02*
X393783D01*
X394243Y331268D01*
Y332186D01*
X393783Y332645D01*
X392865D01*
X392406Y332186D01*
Y331268D01*
X392865Y330809D01*
X395161Y332645D02*
Y330809D01*
Y331727D01*
X395620Y332186D01*
X396079Y332645D01*
X396538D01*
X397916Y333564D02*
Y330809D01*
X399293D01*
X399753Y331268D01*
Y333104D01*
X399293Y333564D01*
X397916D01*
X400671Y332645D02*
Y330809D01*
Y331727D01*
X401130Y332186D01*
X401589Y332645D01*
X402048D01*
X403426D02*
X404344Y330809D01*
X405263Y332645D01*
X525000Y212900D02*
Y215655D01*
X526377D01*
X526837Y215196D01*
Y214278D01*
X526377Y213818D01*
X525000D01*
X525918D02*
X526837Y212900D01*
X529592D02*
X527755D01*
X529592Y214737D01*
Y215196D01*
X529133Y215655D01*
X528214D01*
X527755Y215196D01*
X532347Y212900D02*
X530510D01*
X532347Y214737D01*
Y215196D01*
X531888Y215655D01*
X530969D01*
X530510Y215196D01*
X513600Y215655D02*
Y212900D01*
X514978D01*
X515437Y213359D01*
Y215196D01*
X514978Y215655D01*
X513600D01*
X517732Y212900D02*
Y215655D01*
X516355Y214278D01*
X518192D01*
X470504Y356663D02*
X470045Y357122D01*
Y358041D01*
X470504Y358500D01*
X472341D01*
X472800Y358041D01*
Y357122D01*
X472341Y356663D01*
X471422D01*
Y357582D01*
X472800Y355745D02*
X470045D01*
X472800Y353908D01*
X470045D01*
Y352990D02*
X472800D01*
Y351612D01*
X472341Y351153D01*
X470504D01*
X470045Y351612D01*
Y352990D01*
X450845Y358500D02*
X453600D01*
Y357122D01*
X453141Y356663D01*
X451304D01*
X450845Y357122D01*
Y358500D01*
Y355745D02*
Y354827D01*
Y355286D01*
X453600D01*
Y355745D01*
Y354827D01*
X450845Y352072D02*
Y352990D01*
X451304Y353449D01*
X453141D01*
X453600Y352990D01*
Y352072D01*
X453141Y351612D01*
X451304D01*
X450845Y352072D01*
X456104Y356663D02*
X455645Y357122D01*
Y358041D01*
X456104Y358500D01*
X457941D01*
X458400Y358041D01*
Y357122D01*
X457941Y356663D01*
X455645Y355745D02*
X458400D01*
Y353908D01*
X455645Y352990D02*
X458400D01*
X457482D01*
X455645Y351153D01*
X457022Y352531D01*
X458400Y351153D01*
X460445Y358500D02*
Y356663D01*
Y357582D01*
X463200D01*
X460445Y355745D02*
X463200Y353908D01*
X460445D02*
X463200Y355745D01*
X446045Y356663D02*
Y358500D01*
X447423D01*
X446963Y357582D01*
Y357122D01*
X447423Y356663D01*
X448341D01*
X448800Y357122D01*
Y358041D01*
X448341Y358500D01*
X446963Y355745D02*
X448800Y354827D01*
X446963Y353908D01*
X468000Y358500D02*
X465245D01*
Y357122D01*
X465704Y356663D01*
X466622D01*
X467082Y357122D01*
Y358500D01*
Y357582D02*
X468000Y356663D01*
X465245Y355745D02*
X468000Y353908D01*
X465245D02*
X468000Y355745D01*
X535996Y357263D02*
X536455Y357722D01*
Y358641D01*
X535996Y359100D01*
X534159D01*
X533700Y358641D01*
Y357722D01*
X534159Y357263D01*
X535077D01*
Y358182D01*
X533700Y356345D02*
X536455D01*
X533700Y354508D01*
X536455D01*
Y353590D02*
X533700D01*
Y352212D01*
X534159Y351753D01*
X535996D01*
X536455Y352212D01*
Y353590D01*
X530896Y357263D02*
X531355Y357722D01*
Y358641D01*
X530896Y359100D01*
X529059D01*
X528600Y358641D01*
Y357722D01*
X529059Y357263D01*
X530896Y354508D02*
X531355Y354967D01*
Y355886D01*
X530896Y356345D01*
X530437D01*
X529978Y355886D01*
Y354967D01*
X529518Y354508D01*
X529059D01*
X528600Y354967D01*
Y355886D01*
X529059Y356345D01*
X515596Y357263D02*
X516055Y357722D01*
Y358641D01*
X515596Y359100D01*
X515137D01*
X514677Y358641D01*
Y357722D01*
X514218Y357263D01*
X513759D01*
X513300Y357722D01*
Y358641D01*
X513759Y359100D01*
X515596Y354508D02*
X516055Y354967D01*
Y355886D01*
X515596Y356345D01*
X513759D01*
X513300Y355886D01*
Y354967D01*
X513759Y354508D01*
X516055Y353590D02*
X513300D01*
X514218D01*
X516055Y351753D01*
X514677Y353131D01*
X513300Y351753D01*
X518400Y359100D02*
X521155D01*
X520237Y358182D01*
X521155Y357263D01*
X518400D01*
X521155Y356345D02*
Y355427D01*
Y355886D01*
X518400D01*
Y356345D01*
Y355427D01*
X520696Y352212D02*
X521155Y352672D01*
Y353590D01*
X520696Y354049D01*
X520237D01*
X519777Y353590D01*
Y352672D01*
X519318Y352212D01*
X518859D01*
X518400Y352672D01*
Y353590D01*
X518859Y354049D01*
X521155Y349917D02*
Y350835D01*
X520696Y351294D01*
X518859D01*
X518400Y350835D01*
Y349917D01*
X518859Y349457D01*
X520696D01*
X521155Y349917D01*
X523500Y359100D02*
X526255D01*
X525337Y358182D01*
X526255Y357263D01*
X523500D01*
X526255Y354967D02*
Y355886D01*
X525796Y356345D01*
X523959D01*
X523500Y355886D01*
Y354967D01*
X523959Y354508D01*
X525796D01*
X526255Y354967D01*
X525796Y351753D02*
X526255Y352212D01*
Y353131D01*
X525796Y353590D01*
X525337D01*
X524878Y353131D01*
Y352212D01*
X524418Y351753D01*
X523959D01*
X523500Y352212D01*
Y353131D01*
X523959Y353590D01*
X526255Y350835D02*
Y349917D01*
Y350376D01*
X523500D01*
Y350835D01*
Y349917D01*
X510496Y359100D02*
X510955Y358641D01*
Y357722D01*
X510496Y357263D01*
X510037D01*
X509578Y357722D01*
Y358182D01*
Y357722D01*
X509118Y357263D01*
X508659D01*
X508200Y357722D01*
Y358641D01*
X508659Y359100D01*
X510037Y356345D02*
X508200Y355427D01*
X510037Y354508D01*
X510496Y353590D02*
X510955Y353131D01*
Y352212D01*
X510496Y351753D01*
X510037D01*
X509578Y352212D01*
Y352672D01*
Y352212D01*
X509118Y351753D01*
X508659D01*
X508200Y352212D01*
Y353131D01*
X508659Y353590D01*
X485085Y214301D02*
Y217056D01*
X486463D01*
X486922Y216597D01*
Y215679D01*
X486463Y215220D01*
X485085D01*
X486004D02*
X486922Y214301D01*
X487840D02*
X488759D01*
X488300D01*
Y217056D01*
X487840Y216597D01*
X490136Y217056D02*
X491973D01*
Y216597D01*
X490136Y214760D01*
Y214301D01*
X484999Y208569D02*
Y211324D01*
X486376D01*
X486835Y210865D01*
Y209947D01*
X486376Y209488D01*
X484999D01*
X485917D02*
X486835Y208569D01*
X487754D02*
X488672D01*
X488213D01*
Y211324D01*
X487754Y210865D01*
X491886Y211324D02*
X490050D01*
Y209947D01*
X490968Y210406D01*
X491427D01*
X491886Y209947D01*
Y209029D01*
X491427Y208569D01*
X490509D01*
X490050Y209029D01*
X441245Y149400D02*
X444000D01*
Y150777D01*
X443541Y151237D01*
X441704D01*
X441245Y150777D01*
Y149400D01*
X441704Y153992D02*
X441245Y153533D01*
Y152614D01*
X441704Y152155D01*
X443541D01*
X444000Y152614D01*
Y153533D01*
X443541Y153992D01*
X441245Y154910D02*
X444000D01*
Y156288D01*
X443541Y156747D01*
X441704D01*
X441245Y156288D01*
Y154910D01*
X441704Y159502D02*
X441245Y159043D01*
Y158124D01*
X441704Y157665D01*
X443541D01*
X444000Y158124D01*
Y159043D01*
X443541Y159502D01*
X488400Y328996D02*
X488859Y329455D01*
X489778D01*
X490237Y329914D01*
X492992Y328996D02*
X492532Y329455D01*
X491614D01*
X491155Y328996D01*
Y328537D01*
X491614Y328078D01*
X492532D01*
X492992Y327618D01*
Y327159D01*
X492532Y326700D01*
X491614D01*
X491155Y327159D01*
X493910Y326700D02*
Y329455D01*
X495288D01*
X495747Y328996D01*
Y328078D01*
X495288Y327618D01*
X493910D01*
X496665Y329455D02*
X497583D01*
X497124D01*
Y326700D01*
X496665D01*
X497583D01*
X534559Y172806D02*
X535018Y173265D01*
Y174183D01*
X534559Y174643D01*
X534100D01*
X533641Y174183D01*
Y173265D01*
X533182Y172806D01*
X532723D01*
X532263Y173265D01*
Y174183D01*
X532723Y174643D01*
X534100Y171428D02*
Y170510D01*
X533641Y170051D01*
X532263D01*
Y171428D01*
X532723Y171888D01*
X533182Y171428D01*
Y170051D01*
X532263Y168673D02*
X534559D01*
X533641D01*
Y169132D01*
Y168214D01*
Y168673D01*
X534559D01*
X535018Y168214D01*
X532263Y165459D02*
Y166377D01*
X532723Y166837D01*
X533641D01*
X534100Y166377D01*
Y165459D01*
X533641Y165000D01*
X533182D01*
Y166837D01*
X532263Y164082D02*
Y163163D01*
Y163622D01*
X535018D01*
X534559Y164082D01*
X525000Y207732D02*
Y210487D01*
X526377D01*
X526837Y210027D01*
Y209109D01*
X526377Y208650D01*
X525000D01*
X525918D02*
X526837Y207732D01*
X529592D02*
X527755D01*
X529592Y209568D01*
Y210027D01*
X529133Y210487D01*
X528214D01*
X527755Y210027D01*
X530510D02*
X530969Y210487D01*
X531888D01*
X532347Y210027D01*
Y209568D01*
X531888Y209109D01*
X531428D01*
X531888D01*
X532347Y208650D01*
Y208191D01*
X531888Y207732D01*
X530969D01*
X530510Y208191D01*
X400200Y203155D02*
Y200400D01*
X401578D01*
X402037Y200859D01*
Y201318D01*
X401578Y201778D01*
X400200D01*
X401578D01*
X402037Y202237D01*
Y202696D01*
X401578Y203155D01*
X400200D01*
X402955Y200400D02*
Y202237D01*
X403873Y203155D01*
X404792Y202237D01*
Y200400D01*
Y201778D01*
X402955D01*
X405710Y203155D02*
X407547D01*
X406628D01*
Y200400D01*
X540250Y248513D02*
Y248972D01*
X539332Y249891D01*
X538413Y248972D01*
Y248513D01*
X539332Y249891D02*
Y251268D01*
X537495D02*
X536577D01*
X537036D01*
Y248513D01*
X537495Y248972D01*
X553200Y248804D02*
X552741Y248345D01*
X551823D01*
X551363Y248804D01*
Y249263D01*
X551823Y249723D01*
X551363Y250182D01*
Y250641D01*
X551823Y251100D01*
X552741D01*
X553200Y250641D01*
Y250182D01*
X552741Y249723D01*
X553200Y249263D01*
Y248804D01*
X552741Y249723D02*
X551823D01*
X550445Y251100D02*
Y248345D01*
X549527Y249263D01*
X548608Y248345D01*
Y251100D01*
X547690Y248345D02*
Y251100D01*
Y249723D01*
X547231Y249263D01*
X546312D01*
X545853Y249723D01*
Y251100D01*
X544935Y249263D02*
X543098D01*
X544935Y251100D01*
X543098D01*
X560100Y150668D02*
X557345D01*
Y152046D01*
X557804Y152505D01*
X558722D01*
X559182Y152046D01*
Y150668D01*
Y151587D02*
X560100Y152505D01*
X557345Y153423D02*
X560100Y155260D01*
X557345D02*
X560100Y153423D01*
Y157556D02*
Y156638D01*
X559641Y156178D01*
X558722D01*
X558263Y156638D01*
Y157556D01*
X558722Y158015D01*
X559182D01*
Y156178D01*
X558263Y158933D02*
X560100D01*
X559182D01*
X558722Y159393D01*
X558263Y159852D01*
Y160311D01*
X385800Y205855D02*
X386718D01*
X386259D01*
Y203100D01*
X385800D01*
X386718D01*
X389473Y205855D02*
X388555D01*
X388096Y205396D01*
Y203559D01*
X388555Y203100D01*
X389473D01*
X389932Y203559D01*
Y205396D01*
X389473Y205855D01*
X587737Y174704D02*
X585900D01*
Y173326D01*
X586818D01*
X585900D01*
Y171949D01*
X588655D02*
Y174704D01*
X590032D01*
X590492Y174245D01*
Y173326D01*
X590032Y172867D01*
X588655D01*
X591410Y174704D02*
Y172867D01*
X592328Y171949D01*
X593247Y172867D01*
Y174704D01*
X451466Y197755D02*
Y195000D01*
Y195918D01*
X453302Y197755D01*
X451925Y196378D01*
X453302Y195000D01*
X454221D02*
X455139D01*
X454680D01*
Y197755D01*
X454221Y197296D01*
X560907Y299125D02*
Y299774D01*
X560258Y300423D01*
X559608D01*
X558310Y299125D01*
Y298475D01*
X558959Y297826D01*
X559608D01*
X560907Y295878D02*
X562855Y297826D01*
X560907D01*
X562206Y296527D01*
X462300Y197077D02*
Y194781D01*
X462759Y194322D01*
X463678D01*
X464137Y194781D01*
Y197077D01*
X466892Y194322D02*
X465055D01*
X466892Y196159D01*
Y196618D01*
X466433Y197077D01*
X465514D01*
X465055Y196618D01*
X526745Y289800D02*
X529041D01*
X529500Y290259D01*
Y291178D01*
X529041Y291637D01*
X526745D01*
X529500Y292555D02*
Y293473D01*
Y293014D01*
X526745D01*
X527204Y292555D01*
X492992Y336196D02*
X492532Y336655D01*
X491614D01*
X491155Y336196D01*
Y335737D01*
X491614Y335278D01*
X492532D01*
X492992Y334818D01*
Y334359D01*
X492532Y333900D01*
X491614D01*
X491155Y334359D01*
X493910Y333900D02*
Y336655D01*
X495288D01*
X495747Y336196D01*
Y335278D01*
X495288Y334818D01*
X493910D01*
X496665Y336655D02*
X497583D01*
X497124D01*
Y333900D01*
X496665D01*
X497583D01*
X428588Y311646D02*
X428129Y312105D01*
X427210D01*
X426751Y311646D01*
Y311187D01*
X427210Y310728D01*
X428129D01*
X428588Y310269D01*
Y309809D01*
X428129Y309350D01*
X427210D01*
X426751Y309809D01*
X429965Y311187D02*
X430884D01*
X431343Y310728D01*
Y309350D01*
X429965D01*
X429506Y309809D01*
X429965Y310269D01*
X431343D01*
X432720Y309350D02*
Y311646D01*
Y310728D01*
X432261D01*
X433180D01*
X432720D01*
Y311646D01*
X433180Y312105D01*
X435935Y309350D02*
X435016D01*
X434557Y309809D01*
Y310728D01*
X435016Y311187D01*
X435935D01*
X436394Y310728D01*
Y310269D01*
X434557D01*
X439149Y309350D02*
X437312D01*
X439149Y311187D01*
Y311646D01*
X438690Y312105D01*
X437771D01*
X437312Y311646D01*
X544308Y221663D02*
X543849Y222122D01*
X542930D01*
X542471Y221663D01*
Y221203D01*
X542930Y220744D01*
X543849D01*
X544308Y220285D01*
Y219826D01*
X543849Y219367D01*
X542930D01*
X542471Y219826D01*
X545226Y219367D02*
X546144D01*
X545685D01*
Y222122D01*
X545226Y221663D01*
X496656Y195130D02*
Y197885D01*
X498033D01*
X498492Y197426D01*
Y196507D01*
X498033Y196048D01*
X496656D01*
X497574D02*
X498492Y195130D01*
X501247D02*
X499411D01*
X501247Y196967D01*
Y197426D01*
X500788Y197885D01*
X499870D01*
X499411Y197426D01*
X502166Y195130D02*
X503084D01*
X502625D01*
Y197885D01*
X502166Y197426D01*
X511162Y262945D02*
Y265700D01*
X512540D01*
X512999Y265241D01*
Y264323D01*
X512540Y263864D01*
X511162D01*
X512080D02*
X512999Y262945D01*
X515754D02*
X513917D01*
X515754Y264782D01*
Y265241D01*
X515295Y265700D01*
X514376D01*
X513917Y265241D01*
X516672D02*
X517131Y265700D01*
X518050D01*
X518509Y265241D01*
Y263405D01*
X518050Y262945D01*
X517131D01*
X516672Y263405D01*
Y265241D01*
X563481Y226200D02*
X560726D01*
Y227577D01*
X561185Y228037D01*
X562103D01*
X562562Y227577D01*
Y226200D01*
Y227118D02*
X563481Y228037D01*
Y228955D02*
Y229873D01*
Y229414D01*
X560726D01*
X561185Y228955D01*
X563022Y231251D02*
X563481Y231710D01*
Y232628D01*
X563022Y233088D01*
X561185D01*
X560726Y232628D01*
Y231710D01*
X561185Y231251D01*
X561644D01*
X562103Y231710D01*
Y233088D01*
X552651Y185204D02*
Y187959D01*
X554028D01*
X554487Y187499D01*
Y186581D01*
X554028Y186122D01*
X552651D01*
X553569D02*
X554487Y185204D01*
X555406D02*
X556324D01*
X555865D01*
Y187959D01*
X555406Y187499D01*
X557701D02*
X558161Y187959D01*
X559079D01*
X559538Y187499D01*
Y187040D01*
X559079Y186581D01*
X559538Y186122D01*
Y185663D01*
X559079Y185204D01*
X558161D01*
X557701Y185663D01*
Y186122D01*
X558161Y186581D01*
X557701Y187040D01*
Y187499D01*
X558161Y186581D02*
X559079D01*
X552651Y167100D02*
Y169855D01*
X554028D01*
X554487Y169396D01*
Y168477D01*
X554028Y168018D01*
X552651D01*
X553569D02*
X554487Y167100D01*
X555406D02*
X556324D01*
X555865D01*
Y169855D01*
X555406Y169396D01*
X559538Y169855D02*
X558620Y169396D01*
X557701Y168477D01*
Y167559D01*
X558161Y167100D01*
X559079D01*
X559538Y167559D01*
Y168018D01*
X559079Y168477D01*
X557701D01*
X552651Y189997D02*
Y192752D01*
X554028D01*
X554487Y192292D01*
Y191374D01*
X554028Y190915D01*
X552651D01*
X553569D02*
X554487Y189997D01*
X555406D02*
X556324D01*
X555865D01*
Y192752D01*
X555406Y192292D01*
X559079Y189997D02*
Y192752D01*
X557701Y191374D01*
X559538D01*
X440675Y238235D02*
Y240990D01*
X442052D01*
X442512Y240531D01*
Y239613D01*
X442052Y239153D01*
X440675D01*
X441593D02*
X442512Y238235D01*
X443430Y240990D02*
X445266D01*
Y240531D01*
X443430Y238694D01*
Y238235D01*
X440675Y252615D02*
Y255370D01*
X442052D01*
X442512Y254911D01*
Y253993D01*
X442052Y253533D01*
X440675D01*
X441593D02*
X442512Y252615D01*
X445266Y255370D02*
X444348Y254911D01*
X443430Y253993D01*
Y253074D01*
X443889Y252615D01*
X444807D01*
X445266Y253074D01*
Y253533D01*
X444807Y253993D01*
X443430D01*
X440700Y292500D02*
Y295255D01*
X442077D01*
X442537Y294796D01*
Y293878D01*
X442077Y293418D01*
X440700D01*
X441618D02*
X442537Y292500D01*
X443455D02*
X444373D01*
X443914D01*
Y295255D01*
X443455Y294796D01*
X440675Y266995D02*
Y269750D01*
X442052D01*
X442512Y269291D01*
Y268373D01*
X442052Y267913D01*
X440675D01*
X441593D02*
X442512Y266995D01*
X443430Y269291D02*
X443889Y269750D01*
X444807D01*
X445266Y269291D01*
Y268832D01*
X444807Y268373D01*
X444348D01*
X444807D01*
X445266Y267913D01*
Y267454D01*
X444807Y266995D01*
X443889D01*
X443430Y267454D01*
X440675Y281375D02*
Y284130D01*
X442052D01*
X442512Y283671D01*
Y282752D01*
X442052Y282293D01*
X440675D01*
X441593D02*
X442512Y281375D01*
X445266D02*
X443430D01*
X445266Y283212D01*
Y283671D01*
X444807Y284130D01*
X443889D01*
X443430Y283671D01*
X440675Y223855D02*
Y226610D01*
X442052D01*
X442512Y226151D01*
Y225233D01*
X442052Y224773D01*
X440675D01*
X441593D02*
X442512Y223855D01*
X443430Y226151D02*
X443889Y226610D01*
X444807D01*
X445266Y226151D01*
Y225692D01*
X444807Y225233D01*
X445266Y224773D01*
Y224314D01*
X444807Y223855D01*
X443889D01*
X443430Y224314D01*
Y224773D01*
X443889Y225233D01*
X443430Y225692D01*
Y226151D01*
X443889Y225233D02*
X444807D01*
X478537Y194781D02*
Y196618D01*
X478078Y197077D01*
X477159D01*
X476700Y196618D01*
Y194781D01*
X477159Y194322D01*
X478078D01*
X477618Y195240D02*
X478537Y194322D01*
X478078D02*
X478537Y194781D01*
X479455D02*
X479914Y194322D01*
X480832D01*
X481292Y194781D01*
Y196618D01*
X480832Y197077D01*
X479914D01*
X479455Y196618D01*
Y196159D01*
X479914Y195700D01*
X481292D01*
X554487Y176793D02*
Y178629D01*
X554028Y179088D01*
X553110D01*
X552651Y178629D01*
Y176793D01*
X553110Y176333D01*
X554028D01*
X553569Y177252D02*
X554487Y176333D01*
X554028D02*
X554487Y176793D01*
X555406Y178629D02*
X555865Y179088D01*
X556783D01*
X557242Y178629D01*
Y178170D01*
X556783Y177711D01*
X557242Y177252D01*
Y176793D01*
X556783Y176333D01*
X555865D01*
X555406Y176793D01*
Y177252D01*
X555865Y177711D01*
X555406Y178170D01*
Y178629D01*
X555865Y177711D02*
X556783D01*
X424421Y239260D02*
Y237424D01*
X424880Y236964D01*
X425798D01*
X426258Y237424D01*
Y239260D01*
X425798Y239720D01*
X424880D01*
X425339Y238801D02*
X424421Y239720D01*
X424880D02*
X424421Y239260D01*
X421666Y236964D02*
X422584Y237424D01*
X423502Y238342D01*
Y239260D01*
X423043Y239720D01*
X422125D01*
X421666Y239260D01*
Y238801D01*
X422125Y238342D01*
X423502D01*
X424421Y253515D02*
Y251679D01*
X424880Y251220D01*
X425798D01*
X426258Y251679D01*
Y253515D01*
X425798Y253975D01*
X424880D01*
X425339Y253056D02*
X424421Y253975D01*
X424880D02*
X424421Y253515D01*
X421666Y251220D02*
X423502D01*
Y252597D01*
X422584Y252138D01*
X422125D01*
X421666Y252597D01*
Y253515D01*
X422125Y253975D01*
X423043D01*
X423502Y253515D01*
X424421Y296280D02*
Y294444D01*
X424880Y293985D01*
X425798D01*
X426258Y294444D01*
Y296280D01*
X425798Y296740D01*
X424880D01*
X425339Y295821D02*
X424421Y296740D01*
X424880D02*
X424421Y296280D01*
X423502Y296740D02*
X422584D01*
X423043D01*
Y293985D01*
X423502Y294444D01*
X553405Y309550D02*
Y311387D01*
X552946Y311846D01*
X552028D01*
X551568Y311387D01*
Y309550D01*
X552028Y309091D01*
X552946D01*
X552487Y310009D02*
X553405Y309091D01*
X552946D02*
X553405Y309550D01*
X555701Y309091D02*
Y311846D01*
X554323Y310469D01*
X556160D01*
X424421Y267770D02*
Y265934D01*
X424880Y265475D01*
X425798D01*
X426258Y265934D01*
Y267770D01*
X425798Y268230D01*
X424880D01*
X425339Y267311D02*
X424421Y268230D01*
X424880D02*
X424421Y267770D01*
X423502Y265934D02*
X423043Y265475D01*
X422125D01*
X421666Y265934D01*
Y266393D01*
X422125Y266852D01*
X422584D01*
X422125D01*
X421666Y267311D01*
Y267770D01*
X422125Y268230D01*
X423043D01*
X423502Y267770D01*
X424421Y282025D02*
Y280189D01*
X424880Y279730D01*
X425798D01*
X426258Y280189D01*
Y282025D01*
X425798Y282485D01*
X424880D01*
X425339Y281566D02*
X424421Y282485D01*
X424880D02*
X424421Y282025D01*
X421666Y282485D02*
X423502D01*
X421666Y280648D01*
Y280189D01*
X422125Y279730D01*
X423043D01*
X423502Y280189D01*
X424421Y225005D02*
Y223169D01*
X424880Y222709D01*
X425798D01*
X426258Y223169D01*
Y225005D01*
X425798Y225464D01*
X424880D01*
X425339Y224546D02*
X424421Y225464D01*
X424880D02*
X424421Y225005D01*
X423502Y222709D02*
X421666D01*
Y223169D01*
X423502Y225005D01*
Y225464D01*
X448500Y323671D02*
Y320916D01*
X449878D01*
X450337Y321375D01*
Y323212D01*
X449878Y323671D01*
X448500D01*
X452633Y320916D02*
X451714D01*
X451255Y321375D01*
Y322293D01*
X451714Y322752D01*
X452633D01*
X453092Y322293D01*
Y321834D01*
X451255D01*
X454010Y323671D02*
Y320916D01*
X455388D01*
X455847Y321375D01*
Y321834D01*
Y322293D01*
X455388Y322752D01*
X454010D01*
X456765D02*
Y321375D01*
X457224Y320916D01*
X458602D01*
Y322752D01*
X460438Y319997D02*
X460898D01*
X461357Y320457D01*
Y322752D01*
X459979D01*
X459520Y322293D01*
Y321375D01*
X459979Y320916D01*
X461357D01*
X463193Y319997D02*
X463653D01*
X464112Y320457D01*
Y322752D01*
X462734D01*
X462275Y322293D01*
Y321375D01*
X462734Y320916D01*
X464112D01*
X466408D02*
X465489D01*
X465030Y321375D01*
Y322293D01*
X465489Y322752D01*
X466408D01*
X466867Y322293D01*
Y321834D01*
X465030D01*
X467785Y322752D02*
Y320916D01*
Y321834D01*
X468244Y322293D01*
X468704Y322752D01*
X469163D01*
X513600Y210487D02*
Y207732D01*
X514978D01*
X515437Y208191D01*
Y210027D01*
X514978Y210487D01*
X513600D01*
X518192D02*
X516355D01*
Y209109D01*
X517273Y209568D01*
X517732D01*
X518192Y209109D01*
Y208191D01*
X517732Y207732D01*
X516814D01*
X516355Y208191D01*
X560766Y258499D02*
X560117D01*
X559467Y257850D01*
Y257200D01*
X560766Y255902D01*
X561415D01*
X562065Y256551D01*
Y257200D01*
X562390Y260772D02*
X562065Y259798D01*
Y258499D01*
X562714Y257850D01*
X563364D01*
X564013Y258499D01*
Y259148D01*
X563688Y259473D01*
X563039D01*
X562065Y258499D01*
X523722Y252625D02*
Y253274D01*
X523073Y253923D01*
X522423D01*
X521125Y252625D01*
Y251975D01*
X521774Y251326D01*
X522423D01*
X525995Y251001D02*
X524696Y252300D01*
X523722Y251326D01*
X524696Y251001D01*
X525021Y250677D01*
Y250027D01*
X524371Y249378D01*
X523722D01*
X523073Y250027D01*
Y250677D01*
X525130Y228037D02*
X524671Y227577D01*
Y226659D01*
X525130Y226200D01*
X526966D01*
X527426Y226659D01*
Y227577D01*
X526966Y228037D01*
X525130Y228955D02*
X524671Y229414D01*
Y230332D01*
X525130Y230792D01*
X525589D01*
X526048Y230332D01*
Y229873D01*
Y230332D01*
X526507Y230792D01*
X526966D01*
X527426Y230332D01*
Y229414D01*
X526966Y228955D01*
X561185Y240937D02*
X560726Y240477D01*
Y239559D01*
X561185Y239100D01*
X563022D01*
X563481Y239559D01*
Y240477D01*
X563022Y240937D01*
X563481Y243692D02*
Y241855D01*
X561644Y243692D01*
X561185D01*
X560726Y243232D01*
Y242314D01*
X561185Y241855D01*
X525130Y240937D02*
X524671Y240477D01*
Y239559D01*
X525130Y239100D01*
X526966D01*
X527426Y239559D01*
Y240477D01*
X526966Y240937D01*
X527426Y241855D02*
Y242773D01*
Y242314D01*
X524671D01*
X525130Y241855D01*
D21*
X397367Y231137D02*
Y234286D01*
X398941D01*
X399466Y233761D01*
Y232711D01*
X398941Y232187D01*
X397367D01*
X402614Y233761D02*
X402090Y234286D01*
X401040D01*
X400515Y233761D01*
Y231662D01*
X401040Y231137D01*
X402090D01*
X402614Y231662D01*
X403664Y231137D02*
X404713D01*
X404189D01*
Y234286D01*
X403664Y233761D01*
X406288D02*
X406812Y234286D01*
X407862D01*
X408387Y233761D01*
Y233236D01*
X407862Y232711D01*
X407337D01*
X407862D01*
X408387Y232187D01*
Y231662D01*
X407862Y231137D01*
X406812D01*
X406288Y231662D01*
X397367Y240857D02*
Y244006D01*
X398941D01*
X399466Y243481D01*
Y242431D01*
X398941Y241906D01*
X397367D01*
X400515Y244006D02*
Y240857D01*
X402090D01*
X402614Y241382D01*
Y241906D01*
X402090Y242431D01*
X400515D01*
X402090D01*
X402614Y242956D01*
Y243481D01*
X402090Y244006D01*
X400515D01*
X403664Y243481D02*
X404189Y244006D01*
X405238D01*
X405763Y243481D01*
Y242956D01*
X405238Y242431D01*
X405763Y241906D01*
Y241382D01*
X405238Y240857D01*
X404189D01*
X403664Y241382D01*
Y241906D01*
X404189Y242431D01*
X403664Y242956D01*
Y243481D01*
X404189Y242431D02*
X405238D01*
X397367Y211697D02*
Y214846D01*
X398941D01*
X399466Y214321D01*
Y213271D01*
X398941Y212747D01*
X397367D01*
X402614Y214321D02*
X402090Y214846D01*
X401040D01*
X400515Y214321D01*
Y212222D01*
X401040Y211697D01*
X402090D01*
X402614Y212222D01*
X403664Y211697D02*
X404713D01*
X404189D01*
Y214846D01*
X403664Y214321D01*
X408387Y214846D02*
X406288D01*
Y213271D01*
X407337Y213796D01*
X407862D01*
X408387Y213271D01*
Y212222D01*
X407862Y211697D01*
X406812D01*
X406288Y212222D01*
X397367Y260297D02*
Y263446D01*
X398941D01*
X399466Y262921D01*
Y261871D01*
X398941Y261347D01*
X397367D01*
X400515Y260297D02*
Y262396D01*
X401565Y263446D01*
X402614Y262396D01*
Y260297D01*
Y261871D01*
X400515D01*
X403664Y263446D02*
X405763D01*
Y262921D01*
X403664Y260822D01*
Y260297D01*
X397367Y221417D02*
Y224566D01*
X398941D01*
X399466Y224041D01*
Y222991D01*
X398941Y222466D01*
X397367D01*
X402614Y224041D02*
X402090Y224566D01*
X401040D01*
X400515Y224041D01*
Y221942D01*
X401040Y221417D01*
X402090D01*
X402614Y221942D01*
X403664Y221417D02*
X404713D01*
X404189D01*
Y224566D01*
X403664Y224041D01*
X407862Y221417D02*
Y224566D01*
X406288Y222991D01*
X408387D01*
X397367Y250577D02*
Y253726D01*
X398941D01*
X399466Y253201D01*
Y252151D01*
X398941Y251626D01*
X397367D01*
X400515Y253726D02*
Y250577D01*
X402090D01*
X402614Y251102D01*
Y251626D01*
X402090Y252151D01*
X400515D01*
X402090D01*
X402614Y252676D01*
Y253201D01*
X402090Y253726D01*
X400515D01*
X403664Y251102D02*
X404189Y250577D01*
X405238D01*
X405763Y251102D01*
Y253201D01*
X405238Y253726D01*
X404189D01*
X403664Y253201D01*
Y252676D01*
X404189Y252151D01*
X405763D01*
M02*
