G04*
G04 #@! TF.GenerationSoftware,Altium Limited,Altium Designer,18.1.9 (240)*
G04*
G04 Layer_Color=8388736*
%FSLAX25Y25*%
%MOIN*%
G70*
G01*
G75*
%ADD16C,0.00800*%
%ADD19C,0.00600*%
%ADD42R,0.04300X0.04300*%
G04:AMPARAMS|DCode=43|XSize=86.74mil|YSize=86.74mil|CornerRadius=23.68mil|HoleSize=0mil|Usage=FLASHONLY|Rotation=0.000|XOffset=0mil|YOffset=0mil|HoleType=Round|Shape=RoundedRectangle|*
%AMROUNDEDRECTD43*
21,1,0.08674,0.03937,0,0,0.0*
21,1,0.03937,0.08674,0,0,0.0*
1,1,0.04737,0.01968,-0.01968*
1,1,0.04737,-0.01968,-0.01968*
1,1,0.04737,-0.01968,0.01968*
1,1,0.04737,0.01968,0.01968*
%
%ADD43ROUNDEDRECTD43*%
%ADD44R,0.03950X0.03950*%
%ADD45O,0.01981X0.07493*%
%ADD46O,0.07493X0.01981*%
%ADD47R,0.04300X0.04300*%
%ADD48R,0.03162X0.07493*%
G04:AMPARAMS|DCode=49|XSize=86.74mil|YSize=86.74mil|CornerRadius=23.68mil|HoleSize=0mil|Usage=FLASHONLY|Rotation=90.000|XOffset=0mil|YOffset=0mil|HoleType=Round|Shape=RoundedRectangle|*
%AMROUNDEDRECTD49*
21,1,0.08674,0.03937,0,0,90.0*
21,1,0.03937,0.08674,0,0,90.0*
1,1,0.04737,0.01968,0.01968*
1,1,0.04737,0.01968,-0.01968*
1,1,0.04737,-0.01968,-0.01968*
1,1,0.04737,-0.01968,0.01968*
%
%ADD49ROUNDEDRECTD49*%
%ADD50R,0.12611X0.11430*%
%ADD51R,0.05918X0.04147*%
%ADD52R,0.03162X0.05131*%
%ADD53R,0.03950X0.04737*%
%ADD54R,0.04737X0.03950*%
%ADD55R,0.04147X0.05918*%
%ADD56P,0.06081X4X90.0*%
%ADD57P,0.06081X4X360.0*%
%ADD58R,0.05524X0.06706*%
%ADD59R,0.04737X0.04737*%
%ADD60R,0.04737X0.03162*%
%ADD61R,0.03950X0.03950*%
%ADD62R,0.06706X0.06706*%
%ADD63C,0.06706*%
%ADD64C,0.06706*%
%ADD65R,0.10642X0.10642*%
%ADD66C,0.12611*%
%ADD67C,0.16548*%
D16*
X470300Y242855D02*
Y238856D01*
X472299D01*
X472966Y239522D01*
Y240189D01*
X472299Y240855D01*
X470300D01*
X472299D01*
X472966Y241522D01*
Y242188D01*
X472299Y242855D01*
X470300D01*
X474299Y241522D02*
Y239522D01*
X474965Y238856D01*
X476965D01*
Y238190D01*
X476298Y237523D01*
X475632D01*
X476965Y238856D02*
Y241522D01*
X482296Y242855D02*
X484962D01*
X483629D01*
Y238856D01*
X488961Y242855D02*
X487628D01*
X488294D01*
Y239522D01*
X487628Y238856D01*
X486961D01*
X486295Y239522D01*
X492293Y240189D02*
Y240855D01*
X491627D01*
Y240189D01*
X492293D01*
X492959Y240855D01*
Y242188D01*
X492293Y242855D01*
X490960D01*
X490294Y242188D01*
Y239522D01*
X490960Y238856D01*
X492959D01*
X494292D02*
Y242855D01*
X495625Y241522D01*
X496958Y242855D01*
Y238856D01*
X500290D02*
X498957D01*
X498291Y239522D01*
Y240855D01*
X498957Y241522D01*
X500290D01*
X500957Y240855D01*
Y240189D01*
X498291D01*
X502956Y238856D02*
X504289D01*
X504955Y239522D01*
Y240855D01*
X504289Y241522D01*
X502956D01*
X502290Y240855D01*
Y239522D01*
X502956Y238856D01*
X506288Y241522D02*
Y239522D01*
X506955Y238856D01*
X507621Y239522D01*
X508288Y238856D01*
X508954Y239522D01*
Y241522D01*
D19*
X472766Y246250D02*
X470100D01*
X472766Y248916D01*
Y249582D01*
X472099Y250249D01*
X470766D01*
X470100Y249582D01*
X474099D02*
X474765Y250249D01*
X476098D01*
X476764Y249582D01*
Y246916D01*
X476098Y246250D01*
X474765D01*
X474099Y246916D01*
Y249582D01*
X480763Y246250D02*
X478097D01*
X480763Y248916D01*
Y249582D01*
X480097Y250249D01*
X478764D01*
X478097Y249582D01*
X482096D02*
X482763Y250249D01*
X484095D01*
X484762Y249582D01*
Y246916D01*
X484095Y246250D01*
X482763D01*
X482096Y246916D01*
Y249582D01*
X486095Y246250D02*
X488761Y248916D01*
X490094Y249582D02*
X490760Y250249D01*
X492093D01*
X492759Y249582D01*
Y246916D01*
X492093Y246250D01*
X490760D01*
X490094Y246916D01*
Y249582D01*
X496092Y246250D02*
Y250249D01*
X494092Y248249D01*
X496758D01*
X498091Y246250D02*
X500757Y248916D01*
X502090Y246250D02*
X503423D01*
X502756D01*
Y250249D01*
X502090Y249582D01*
X505422D02*
X506088Y250249D01*
X507421D01*
X508088Y249582D01*
Y246916D01*
X507421Y246250D01*
X506088D01*
X505422Y246916D01*
Y249582D01*
D42*
X559726Y305700D02*
D03*
X566226D02*
D03*
Y324900D02*
D03*
X559726D02*
D03*
X523850Y203084D02*
D03*
X530350D02*
D03*
X503650Y209442D02*
D03*
X497150D02*
D03*
Y215700D02*
D03*
X503650D02*
D03*
X530350Y197600D02*
D03*
X523850D02*
D03*
X497150Y204916D02*
D03*
X503650D02*
D03*
X573950Y263133D02*
D03*
X580450D02*
D03*
X573950Y269165D02*
D03*
X580450D02*
D03*
X518350Y269700D02*
D03*
X511850D02*
D03*
X549043Y186300D02*
D03*
X542543D02*
D03*
X542543Y168000D02*
D03*
X549043D02*
D03*
X549043Y191572D02*
D03*
X542543D02*
D03*
D43*
X390600Y323200D02*
D03*
Y313200D02*
D03*
Y303200D02*
D03*
Y293200D02*
D03*
Y283200D02*
D03*
Y273200D02*
D03*
X589800Y264000D02*
D03*
Y254000D02*
D03*
Y244000D02*
D03*
Y234000D02*
D03*
Y224000D02*
D03*
Y214000D02*
D03*
X390600Y262900D02*
D03*
Y252900D02*
D03*
Y242900D02*
D03*
Y232900D02*
D03*
Y222900D02*
D03*
Y212900D02*
D03*
X589800Y202000D02*
D03*
Y192000D02*
D03*
Y182000D02*
D03*
D44*
X518400Y202884D02*
D03*
X512495D02*
D03*
X518400Y197400D02*
D03*
X512495D02*
D03*
D45*
X537442Y257655D02*
D03*
X539410D02*
D03*
X541379D02*
D03*
X551221Y289545D02*
D03*
X553190D02*
D03*
X555158D02*
D03*
Y257655D02*
D03*
X553190D02*
D03*
X535473D02*
D03*
X543347D02*
D03*
X545316D02*
D03*
X547284D02*
D03*
X549253D02*
D03*
X551221D02*
D03*
X557127D02*
D03*
Y289545D02*
D03*
X549253D02*
D03*
X547284D02*
D03*
X545316D02*
D03*
X543347D02*
D03*
X541379D02*
D03*
X539410D02*
D03*
X537442D02*
D03*
X535473D02*
D03*
D46*
X530355Y266710D02*
D03*
Y268679D02*
D03*
X562245Y278521D02*
D03*
Y280490D02*
D03*
X530355Y276553D02*
D03*
Y272616D02*
D03*
Y274584D02*
D03*
Y278521D02*
D03*
X562245Y262773D02*
D03*
Y264742D02*
D03*
Y266710D02*
D03*
Y268679D02*
D03*
Y270647D02*
D03*
Y272616D02*
D03*
Y274584D02*
D03*
Y276553D02*
D03*
Y282458D02*
D03*
Y284427D02*
D03*
X530355D02*
D03*
Y282458D02*
D03*
Y280490D02*
D03*
Y270647D02*
D03*
Y264742D02*
D03*
Y262773D02*
D03*
D47*
X563981Y193300D02*
D03*
X568902D02*
D03*
X573701D02*
D03*
X435600Y218150D02*
D03*
Y224650D02*
D03*
Y245030D02*
D03*
Y251530D02*
D03*
Y258470D02*
D03*
Y264970D02*
D03*
Y271910D02*
D03*
Y278410D02*
D03*
Y285350D02*
D03*
Y291850D02*
D03*
Y231590D02*
D03*
Y238090D02*
D03*
X556385Y244450D02*
D03*
Y237950D02*
D03*
X531785Y244450D02*
D03*
Y237950D02*
D03*
Y226550D02*
D03*
Y233050D02*
D03*
X573701Y199800D02*
D03*
X568902D02*
D03*
X563981D02*
D03*
X556385Y226550D02*
D03*
Y233050D02*
D03*
D48*
X520800Y334800D02*
D03*
X525721D02*
D03*
X510957Y325500D02*
D03*
X535564D02*
D03*
X530643D02*
D03*
X525721D02*
D03*
X520800D02*
D03*
X515879D02*
D03*
X465842Y328826D02*
D03*
X460921D02*
D03*
X456000D02*
D03*
X451079D02*
D03*
X446158D02*
D03*
X470764D02*
D03*
X510957Y334800D02*
D03*
X515879D02*
D03*
X535564D02*
D03*
X530643D02*
D03*
D49*
Y153600D02*
D03*
X540642D02*
D03*
X550642D02*
D03*
X520600D02*
D03*
X510600D02*
D03*
X500600D02*
D03*
X490600D02*
D03*
X480600D02*
D03*
X470600D02*
D03*
X460600D02*
D03*
X450600D02*
D03*
D50*
X544816Y313689D02*
D03*
X501706D02*
D03*
X480016Y340637D02*
D03*
X436905D02*
D03*
X501706Y346611D02*
D03*
X544816D02*
D03*
D51*
X533400Y189534D02*
D03*
Y181266D02*
D03*
D52*
X466360Y203991D02*
D03*
X470100D02*
D03*
X473840D02*
D03*
Y213440D02*
D03*
X466360D02*
D03*
D53*
X486900Y197560D02*
D03*
X483160Y205040D02*
D03*
X490640D02*
D03*
D54*
X557560Y315000D02*
D03*
X565040Y318740D02*
D03*
Y311260D02*
D03*
X410560Y295651D02*
D03*
X418040Y299391D02*
D03*
Y291911D02*
D03*
X410560Y281404D02*
D03*
X418040Y285144D02*
D03*
Y277664D02*
D03*
X410560Y238663D02*
D03*
X418040Y242403D02*
D03*
Y234923D02*
D03*
X410560Y224416D02*
D03*
X418040Y228156D02*
D03*
Y220676D02*
D03*
X410560Y267157D02*
D03*
X418040Y270897D02*
D03*
Y263417D02*
D03*
X410560Y252910D02*
D03*
X418040Y256650D02*
D03*
Y249170D02*
D03*
X549833Y173560D02*
D03*
Y181040D02*
D03*
X542353Y177300D02*
D03*
D55*
X437334Y318600D02*
D03*
X429066D02*
D03*
D56*
X569898Y258198D02*
D03*
X565302Y253602D02*
D03*
D57*
X569898Y288900D02*
D03*
X565302Y293496D02*
D03*
X525402Y257498D02*
D03*
X529998Y252902D02*
D03*
D58*
X537889Y243603D02*
D03*
X550881D02*
D03*
D59*
X544385Y226688D02*
D03*
Y237712D02*
D03*
D60*
X537298Y227869D02*
D03*
X551472D02*
D03*
Y236531D02*
D03*
X537298D02*
D03*
D61*
X563981Y182194D02*
D03*
Y188100D02*
D03*
X573701D02*
D03*
Y182194D02*
D03*
X568902Y188100D02*
D03*
Y182194D02*
D03*
D62*
X590200Y283500D02*
D03*
D63*
X580200D02*
D03*
X590200Y293500D02*
D03*
X580200D02*
D03*
X590200Y303500D02*
D03*
X580200D02*
D03*
X590200Y313500D02*
D03*
X580200D02*
D03*
X590200Y323500D02*
D03*
X580200D02*
D03*
X590200Y333500D02*
D03*
X580200D02*
D03*
X394900Y150541D02*
D03*
Y194041D02*
D03*
D64*
X495000Y168000D02*
D03*
X522559D02*
D03*
X449724Y186504D02*
D03*
Y168000D02*
D03*
D65*
X434400Y182291D02*
D03*
Y162291D02*
D03*
D66*
X557758Y209476D02*
D03*
X419885Y347271D02*
D03*
D67*
X393701Y350394D02*
D03*
X586614D02*
D03*
Y157480D02*
D03*
X411920Y338583D02*
D03*
X569400D02*
D03*
Y157480D02*
D03*
X411920Y158118D02*
D03*
X393701Y157480D02*
D03*
M02*
