G04*
G04 #@! TF.GenerationSoftware,Altium Limited,Altium Designer,18.1.9 (240)*
G04*
G04 Layer_Color=16711935*
%FSLAX25Y25*%
%MOIN*%
G70*
G01*
G75*
%ADD18C,0.00394*%
D18*
X538032Y263364D02*
G03*
X538032Y263364I-1969J0D01*
G01*
X535861Y181463D02*
Y189337D01*
X530939Y181463D02*
Y189337D01*
X535861D01*
X530939Y181463D02*
X535861D01*
X464096Y205271D02*
X476104D01*
X464096Y212161D02*
X476104D01*
X464096Y205271D02*
Y212161D01*
X476104Y205271D02*
Y212161D01*
X481093Y198643D02*
Y203958D01*
X492707Y198643D02*
Y203958D01*
X481093Y198643D02*
X492707D01*
X481093Y203958D02*
X492707D01*
X558642Y320807D02*
X563958D01*
X558642Y309193D02*
X563958D01*
X558642D02*
Y320807D01*
X563958Y309193D02*
Y320807D01*
X429263Y316139D02*
X437137D01*
X429263Y321061D02*
X437137D01*
Y316139D02*
Y321061D01*
X429263Y316139D02*
Y321061D01*
X411643Y301458D02*
X416958D01*
X411643Y289844D02*
X416958D01*
X411643D02*
Y301458D01*
X416958Y289844D02*
Y301458D01*
X411643Y287211D02*
X416958D01*
X411643Y275597D02*
X416958D01*
X411643D02*
Y287211D01*
X416958Y275597D02*
Y287211D01*
X411643Y244470D02*
X416958D01*
X411643Y232856D02*
X416958D01*
X411643D02*
Y244470D01*
X416958Y232856D02*
Y244470D01*
X411643Y230223D02*
X416958D01*
X411643Y218609D02*
X416958D01*
X411643D02*
Y230223D01*
X416958Y218609D02*
Y230223D01*
X411643Y272964D02*
X416958D01*
X411643Y261350D02*
X416958D01*
X411643D02*
Y272964D01*
X416958Y261350D02*
Y272964D01*
X411643Y258717D02*
X416958D01*
X411643Y247103D02*
X416958D01*
X411643D02*
Y258717D01*
X416958Y247103D02*
Y258717D01*
X548751Y171493D02*
Y183107D01*
X543436Y171493D02*
Y183107D01*
Y171493D02*
X548751D01*
X543436Y183107D02*
X548751D01*
X532520Y259821D02*
X560079D01*
X532520Y287380D02*
X560079D01*
X532520Y259821D02*
Y287380D01*
X560079Y259821D02*
Y287380D01*
M02*
