G04*
G04 #@! TF.GenerationSoftware,Altium Limited,Altium Designer,18.1.9 (240)*
G04*
G04 Layer_Color=2752767*
%FSLAX25Y25*%
%MOIN*%
G70*
G01*
G75*
%ADD10C,0.00394*%
%ADD11C,0.00200*%
%ADD12C,0.00197*%
%ADD13C,0.00267*%
%ADD14C,0.01000*%
D10*
X538032Y263364D02*
G03*
X538032Y263364I-1969J0D01*
G01*
X535861Y181463D02*
Y189337D01*
X530939Y181463D02*
Y189337D01*
X535861D01*
X530939Y181463D02*
X535861D01*
X464096Y205271D02*
X476104D01*
X464096Y212161D02*
X476104D01*
X464096Y205271D02*
Y212161D01*
X476104Y205271D02*
Y212161D01*
X481093Y198643D02*
Y203958D01*
X492707Y198643D02*
Y203958D01*
X481093Y198643D02*
X492707D01*
X481093Y203958D02*
X492707D01*
X558642Y320807D02*
X563958D01*
X558642Y309193D02*
X563958D01*
X558642D02*
Y320807D01*
X563958Y309193D02*
Y320807D01*
X429263Y316139D02*
X437137D01*
X429263Y321061D02*
X437137D01*
Y316139D02*
Y321061D01*
X429263Y316139D02*
Y321061D01*
X411643Y301458D02*
X416958D01*
X411643Y289844D02*
X416958D01*
X411643D02*
Y301458D01*
X416958Y289844D02*
Y301458D01*
X411643Y287211D02*
X416958D01*
X411643Y275597D02*
X416958D01*
X411643D02*
Y287211D01*
X416958Y275597D02*
Y287211D01*
X411643Y244470D02*
X416958D01*
X411643Y232856D02*
X416958D01*
X411643D02*
Y244470D01*
X416958Y232856D02*
Y244470D01*
X411643Y230223D02*
X416958D01*
X411643Y218609D02*
X416958D01*
X411643D02*
Y230223D01*
X416958Y218609D02*
Y230223D01*
X411643Y272964D02*
X416958D01*
X411643Y261350D02*
X416958D01*
X411643D02*
Y272964D01*
X416958Y261350D02*
Y272964D01*
X411643Y258717D02*
X416958D01*
X411643Y247103D02*
X416958D01*
X411643D02*
Y258717D01*
X416958Y247103D02*
Y258717D01*
X548751Y171493D02*
Y183107D01*
X543436Y171493D02*
Y183107D01*
Y171493D02*
X548751D01*
X543436Y183107D02*
X548751D01*
X532520Y259821D02*
X560079D01*
X532520Y287380D02*
X560079D01*
X532520Y259821D02*
Y287380D01*
X560079Y259821D02*
Y287380D01*
X531431Y185400D02*
X535368D01*
X533400Y183431D02*
Y187369D01*
X470100Y206747D02*
Y210684D01*
X468131Y208716D02*
X472069D01*
X484932Y201300D02*
X488869D01*
X486900Y199331D02*
Y203269D01*
X561300Y313032D02*
Y316968D01*
X559332Y315000D02*
X563269D01*
X433200Y316632D02*
Y320568D01*
X431231Y318600D02*
X435169D01*
X414300Y293683D02*
Y297620D01*
X412331Y295651D02*
X416268D01*
X414300Y279436D02*
Y283373D01*
X412331Y281404D02*
X416268D01*
X414300Y236695D02*
Y240632D01*
X412331Y238663D02*
X416268D01*
X414300Y222448D02*
Y226385D01*
X412331Y224416D02*
X416268D01*
X414300Y265189D02*
Y269126D01*
X412331Y267157D02*
X416268D01*
X414300Y250942D02*
Y254879D01*
X412331Y252910D02*
X416268D01*
X544125Y177300D02*
X548062D01*
X546093Y175331D02*
Y179269D01*
X546300Y271632D02*
Y275569D01*
X544332Y273600D02*
X548269D01*
D11*
X565897Y305558D02*
X566897D01*
X566397D02*
Y306058D01*
Y305058D02*
Y305558D01*
X559054Y325042D02*
X560054D01*
X559554Y324542D02*
Y325042D01*
Y325542D01*
X523679Y203226D02*
Y203726D01*
Y202726D02*
Y203226D01*
X523179D02*
X524179D01*
X503821Y208800D02*
Y209300D01*
Y209800D01*
X503321Y209300D02*
X504321D01*
X496979Y215842D02*
Y216342D01*
Y215342D02*
Y215842D01*
X496479D02*
X497479D01*
X523179Y197742D02*
X524179D01*
X523679Y197242D02*
Y197742D01*
Y198242D01*
X496979Y205058D02*
Y205557D01*
Y204557D02*
Y205058D01*
X496479D02*
X497479D01*
X573779Y263274D02*
Y263774D01*
Y262774D02*
Y263274D01*
X573279D02*
X574279D01*
X573779Y269307D02*
Y269807D01*
Y268807D02*
Y269307D01*
X573279D02*
X574279D01*
X564727Y253227D02*
X565434Y253935D01*
X565081Y253581D02*
X565434Y253227D01*
X564727Y253935D02*
X565081Y253581D01*
X518521Y269058D02*
Y269558D01*
Y270058D01*
X518021Y269558D02*
X519021D01*
X564927Y294071D02*
X565635Y293364D01*
X564927D02*
X565281Y293718D01*
X565635Y294071D01*
X529665Y253034D02*
X530372Y252327D01*
X530019Y252681D02*
X530372Y253034D01*
X529665Y252327D02*
X530019Y252681D01*
X435742Y224321D02*
Y225321D01*
X435242Y224821D02*
X435742D01*
X436242D01*
X435742Y251201D02*
Y252201D01*
X435242Y251701D02*
X435742D01*
X436242D01*
X435742Y264641D02*
Y265641D01*
X435242Y265141D02*
X435742D01*
X436242D01*
X434958Y271739D02*
X435458D01*
X435958D01*
X435458Y271239D02*
Y272239D01*
X434958Y285179D02*
X435458D01*
X435958D01*
X435458Y284679D02*
Y285679D01*
X434958Y231419D02*
X435458D01*
X435958D01*
X435458Y230919D02*
Y231919D01*
X541872Y186442D02*
X542872D01*
X542372Y185942D02*
Y186442D01*
Y186942D01*
X548715Y167858D02*
X549715D01*
X549215D02*
Y168358D01*
Y167358D02*
Y167858D01*
X541872Y191714D02*
X542872D01*
X542372Y191214D02*
Y191714D01*
Y192214D01*
X556527Y244621D02*
X557027D01*
X556027D02*
X556527D01*
Y244121D02*
Y245121D01*
X531927Y244621D02*
X532427D01*
X531427D02*
X531927D01*
Y244121D02*
Y245121D01*
X531143Y226379D02*
X531643D01*
X532143D01*
X531643Y225879D02*
Y226879D01*
X573059Y193129D02*
X573559D01*
X574059D01*
X573559Y192629D02*
Y193629D01*
X568260Y193129D02*
X568760D01*
X569260D01*
X568760Y192629D02*
Y193629D01*
X563839Y192629D02*
Y193629D01*
Y193129D02*
X564339D01*
X563339D02*
X563839D01*
X555743Y226379D02*
X556243D01*
X556743D01*
X556243Y225879D02*
Y226879D01*
X589400Y282700D02*
Y284300D01*
X591000D01*
Y282700D01*
X589400D01*
X579400D02*
Y284300D01*
X581000D01*
Y282700D01*
X579400D01*
X589400Y292700D02*
Y294300D01*
X591000D01*
Y292700D01*
X589400D01*
X579400D02*
Y294300D01*
X581000D01*
Y292700D01*
X579400D01*
X589400Y302700D02*
Y304300D01*
X591000D01*
Y302700D01*
X589400D01*
X579400D02*
Y304300D01*
X581000D01*
Y302700D01*
X579400D01*
X589400Y312700D02*
Y314300D01*
X591000D01*
Y312700D01*
X589400D01*
X579400D02*
Y314300D01*
X581000D01*
Y312700D01*
X579400D01*
X589400Y322700D02*
Y324300D01*
X591000D01*
Y322700D01*
X589400D01*
X579400D02*
Y324300D01*
X581000D01*
Y322700D01*
X579400D01*
X589400Y332700D02*
Y334300D01*
X591000D01*
Y332700D01*
X589400D01*
X579400D02*
Y334300D01*
X581000D01*
Y332700D01*
X579400D01*
X394900Y149741D02*
X394100Y151341D01*
X395700D01*
X394900Y149741D01*
Y193241D02*
X394100Y194841D01*
X395700D01*
X394900Y193241D01*
X434400Y181491D02*
X434800Y181891D01*
X435200D01*
X434800Y182291D01*
X435200Y182691D01*
X434800D01*
X434400Y183091D01*
X434000Y182691D01*
X433600D01*
X434000Y182291D01*
X433600Y181891D01*
X434000D01*
X434400Y181491D01*
Y161491D02*
X434800Y161891D01*
X435200D01*
X434800Y162291D01*
X435200Y162691D01*
X434800D01*
X434400Y163091D01*
X434000Y162691D01*
X433600D01*
X434000Y162291D01*
X433600Y161891D01*
X434000D01*
X434400Y161491D01*
X521567Y290200D02*
X521967Y291000D01*
X521567Y291800D01*
X522367Y291400D01*
X523167Y291800D01*
X522767Y291000D01*
X523167Y290200D01*
X522367Y290600D01*
X521567Y290200D01*
X557335Y238900D02*
X557735Y239700D01*
X557335Y240500D01*
X558135Y240100D01*
X558935Y240500D01*
X558535Y239700D01*
X558935Y238900D01*
X558135Y239300D01*
X557335Y238900D01*
X536671Y221800D02*
X537071Y222600D01*
X536671Y223400D01*
X537471Y223000D01*
X538271Y223400D01*
X537871Y222600D01*
X538271Y221800D01*
X537471Y222200D01*
X536671Y221800D01*
X494200Y214900D02*
X494600Y215700D01*
X494200Y216500D01*
X495000Y216100D01*
X495800Y216500D01*
X495400Y215700D01*
X495800Y214900D01*
X495000Y215300D01*
X494200Y214900D01*
X440800Y203800D02*
X441200Y204600D01*
X440800Y205400D01*
X441600Y205000D01*
X442400Y205400D01*
X442000Y204600D01*
X442400Y203800D01*
X441600Y204200D01*
X440800Y203800D01*
X401800D02*
X402200Y204600D01*
X401800Y205400D01*
X402600Y205000D01*
X403400Y205400D01*
X403000Y204600D01*
X403400Y203800D01*
X402600Y204200D01*
X401800Y203800D01*
X389800Y201100D02*
X390200Y201900D01*
X389800Y202700D01*
X390600Y202300D01*
X391400Y202700D01*
X391000Y201900D01*
X391400Y201100D01*
X390600Y201500D01*
X389800Y201100D01*
X473300Y161694D02*
Y161294D01*
X474100D01*
Y161694D01*
X474500D01*
Y162494D01*
X474100D01*
Y162894D01*
X473300D01*
Y162494D01*
X472900D01*
Y161694D01*
X473300D01*
X506800Y181900D02*
X507200Y182700D01*
X506800Y183500D01*
X507600Y183100D01*
X508400Y183500D01*
X508000Y182700D01*
X508400Y181900D01*
X507600Y182300D01*
X506800Y181900D01*
Y194200D02*
X507200Y195000D01*
X506800Y195800D01*
X507600Y195400D01*
X508400Y195800D01*
X508000Y195000D01*
X508400Y194200D01*
X507600Y194600D01*
X506800Y194200D01*
X511694D02*
X512094Y195000D01*
X511694Y195800D01*
X512495Y195400D01*
X513295Y195800D01*
X512894Y195000D01*
X513295Y194200D01*
X512495Y194600D01*
X511694Y194200D01*
X541600Y151300D02*
X542000Y152100D01*
X541600Y152900D01*
X542400Y152500D01*
X543200Y152900D01*
X542800Y152100D01*
X543200Y151300D01*
X542400Y151700D01*
X541600Y151300D01*
X538300D02*
X538700Y152100D01*
X538300Y152900D01*
X539100Y152500D01*
X539900Y152900D01*
X539500Y152100D01*
X539900Y151300D01*
X539100Y151700D01*
X538300Y151300D01*
X541600Y154600D02*
X542000Y155400D01*
X541600Y156200D01*
X542400Y155800D01*
X543200Y156200D01*
X542800Y155400D01*
X543200Y154600D01*
X542400Y155000D01*
X541600Y154600D01*
X538300D02*
X538700Y155400D01*
X538300Y156200D01*
X539100Y155800D01*
X539900Y156200D01*
X539500Y155400D01*
X539900Y154600D01*
X539100Y155000D01*
X538300Y154600D01*
X536161Y173800D02*
X536561Y174600D01*
X536161Y175400D01*
X536961Y175000D01*
X537761Y175400D01*
X537361Y174600D01*
X537761Y173800D01*
X536961Y174200D01*
X536161Y173800D01*
X530800Y167200D02*
X531200Y168000D01*
X530800Y168800D01*
X531600Y168400D01*
X532400Y168800D01*
X532000Y168000D01*
X532400Y167200D01*
X531600Y167600D01*
X530800Y167200D01*
X463100Y174200D02*
Y173800D01*
X463900D01*
Y174200D01*
X464300D01*
Y175000D01*
X463900D01*
Y175400D01*
X463100D01*
Y175000D01*
X462700D01*
Y174200D01*
X463100D01*
X570700Y210100D02*
X571100Y210900D01*
X570700Y211700D01*
X571500Y211300D01*
X572300Y211700D01*
X571900Y210900D01*
X572300Y210100D01*
X571500Y210500D01*
X570700Y210100D01*
X568000Y211900D02*
X568400Y212700D01*
X568000Y213500D01*
X568800Y213100D01*
X569600Y213500D01*
X569200Y212700D01*
X569600Y211900D01*
X568800Y212300D01*
X568000Y211900D01*
X565861Y214198D02*
X566261Y214998D01*
X565861Y215798D01*
X566661Y215398D01*
X567461Y215798D01*
X567061Y214998D01*
X567461Y214198D01*
X566661Y214598D01*
X565861Y214198D01*
X581800Y230200D02*
X582200Y231000D01*
X581800Y231800D01*
X582600Y231400D01*
X583400Y231800D01*
X583000Y231000D01*
X583400Y230200D01*
X582600Y230600D01*
X581800Y230200D01*
X567100D02*
X567500Y231000D01*
X567100Y231800D01*
X567900Y231400D01*
X568700Y231800D01*
X568300Y231000D01*
X568700Y230200D01*
X567900Y230600D01*
X567100Y230200D01*
Y233200D02*
X567500Y234000D01*
X567100Y234800D01*
X567900Y234400D01*
X568700Y234800D01*
X568300Y234000D01*
X568700Y233200D01*
X567900Y233600D01*
X567100Y233200D01*
X453700D02*
X454100Y234000D01*
X453700Y234800D01*
X454500Y234400D01*
X455300Y234800D01*
X454900Y234000D01*
X455300Y233200D01*
X454500Y233600D01*
X453700Y233200D01*
X507421Y222421D02*
X507821Y223221D01*
X507421Y224021D01*
X508221Y223621D01*
X509021Y224021D01*
X508621Y223221D01*
X509021Y222421D01*
X508221Y222821D01*
X507421Y222421D01*
X430300Y235000D02*
X430700Y235800D01*
X430300Y236600D01*
X431100Y236200D01*
X431900Y236600D01*
X431500Y235800D01*
X431900Y235000D01*
X431100Y235400D01*
X430300Y235000D01*
X545200Y214000D02*
X545600Y214800D01*
X545200Y215600D01*
X546000Y215200D01*
X546800Y215600D01*
X546400Y214800D01*
X546800Y214000D01*
X546000Y214400D01*
X545200Y214000D01*
X542893Y215800D02*
X543293Y216600D01*
X542893Y217400D01*
X543693Y217000D01*
X544493Y217400D01*
X544093Y216600D01*
X544493Y215800D01*
X543693Y216200D01*
X542893Y215800D01*
X453700Y230200D02*
X454100Y231000D01*
X453700Y231800D01*
X454500Y231400D01*
X455300Y231800D01*
X454900Y231000D01*
X455300Y230200D01*
X454500Y230600D01*
X453700Y230200D01*
X442300D02*
X442700Y231000D01*
X442300Y231800D01*
X443100Y231400D01*
X443900Y231800D01*
X443500Y231000D01*
X443900Y230200D01*
X443100Y230600D01*
X442300Y230200D01*
X505300Y220300D02*
X505700Y221100D01*
X505300Y221900D01*
X506100Y221500D01*
X506900Y221900D01*
X506500Y221100D01*
X506900Y220300D01*
X506100Y220700D01*
X505300Y220300D01*
X554500Y190600D02*
X554900Y191400D01*
X554500Y192200D01*
X555300Y191800D01*
X556100Y192200D01*
X555700Y191400D01*
X556100Y190600D01*
X555300Y191000D01*
X554500Y190600D01*
X548343D02*
X548742Y191400D01*
X548343Y192200D01*
X549143Y191800D01*
X549942Y192200D01*
X549543Y191400D01*
X549942Y190600D01*
X549143Y191000D01*
X548343Y190600D01*
X483400Y288100D02*
X483800Y288900D01*
X483400Y289700D01*
X484200Y289300D01*
X485000Y289700D01*
X484600Y288900D01*
X485000Y288100D01*
X484200Y288500D01*
X483400Y288100D01*
X482500Y291100D02*
X482900Y291900D01*
X482500Y292700D01*
X483300Y292300D01*
X484100Y292700D01*
X483700Y291900D01*
X484100Y291100D01*
X483300Y291500D01*
X482500Y291100D01*
X486300Y288100D02*
X486700Y288900D01*
X486300Y289700D01*
X487100Y289300D01*
X487900Y289700D01*
X487500Y288900D01*
X487900Y288100D01*
X487100Y288500D01*
X486300Y288100D01*
X481600Y294100D02*
X482000Y294900D01*
X481600Y295700D01*
X482400Y295300D01*
X483200Y295700D01*
X482800Y294900D01*
X483200Y294100D01*
X482400Y294500D01*
X481600Y294100D01*
X490300Y279400D02*
X490700Y280200D01*
X490300Y281000D01*
X491100Y280600D01*
X491900Y281000D01*
X491500Y280200D01*
X491900Y279400D01*
X491100Y279800D01*
X490300Y279400D01*
X493300D02*
X493700Y280200D01*
X493300Y281000D01*
X494100Y280600D01*
X494900Y281000D01*
X494500Y280200D01*
X494900Y279400D01*
X494100Y279800D01*
X493300Y279400D01*
X465700Y274900D02*
X466100Y275700D01*
X465700Y276500D01*
X466500Y276100D01*
X467300Y276500D01*
X466900Y275700D01*
X467300Y274900D01*
X466500Y275300D01*
X465700Y274900D01*
X469000D02*
X469400Y275700D01*
X469000Y276500D01*
X469800Y276100D01*
X470600Y276500D01*
X470200Y275700D01*
X470600Y274900D01*
X469800Y275300D01*
X469000Y274900D01*
X465700Y271600D02*
X466100Y272400D01*
X465700Y273200D01*
X466500Y272800D01*
X467300Y273200D01*
X466900Y272400D01*
X467300Y271600D01*
X466500Y272000D01*
X465700Y271600D01*
X543100Y178000D02*
X543500Y178800D01*
X543100Y179600D01*
X543900Y179200D01*
X544700Y179600D01*
X544300Y178800D01*
X544700Y178000D01*
X543900Y178400D01*
X543100Y178000D01*
X552358Y159400D02*
X552758Y160200D01*
X552358Y161000D01*
X553158Y160600D01*
X553958Y161000D01*
X553558Y160200D01*
X553958Y159400D01*
X553158Y159800D01*
X552358Y159400D01*
X528300Y154600D02*
X528700Y155400D01*
X528300Y156200D01*
X529100Y155800D01*
X529900Y156200D01*
X529500Y155400D01*
X529900Y154600D01*
X529100Y155000D01*
X528300Y154600D01*
X531600D02*
X532000Y155400D01*
X531600Y156200D01*
X532400Y155800D01*
X533200Y156200D01*
X532800Y155400D01*
X533200Y154600D01*
X532400Y155000D01*
X531600Y154600D01*
X528300Y151300D02*
X528700Y152100D01*
X528300Y152900D01*
X529100Y152500D01*
X529900Y152900D01*
X529500Y152100D01*
X529900Y151300D01*
X529100Y151700D01*
X528300Y151300D01*
X531600D02*
X532000Y152100D01*
X531600Y152900D01*
X532400Y152500D01*
X533200Y152900D01*
X532800Y152100D01*
X533200Y151300D01*
X532400Y151700D01*
X531600Y151300D01*
X587458Y183000D02*
X587857Y183800D01*
X587458Y184600D01*
X588258Y184200D01*
X589057Y184600D01*
X588658Y183800D01*
X589057Y183000D01*
X588258Y183400D01*
X587458Y183000D01*
X590758D02*
X591157Y183800D01*
X590758Y184600D01*
X591558Y184200D01*
X592357Y184600D01*
X591958Y183800D01*
X592357Y183000D01*
X591558Y183400D01*
X590758Y183000D01*
X587458Y179700D02*
X587857Y180500D01*
X587458Y181300D01*
X588258Y180900D01*
X589057Y181300D01*
X588658Y180500D01*
X589057Y179700D01*
X588258Y180100D01*
X587458Y179700D01*
X590758D02*
X591157Y180500D01*
X590758Y181300D01*
X591558Y180900D01*
X592357Y181300D01*
X591958Y180500D01*
X592357Y179700D01*
X591558Y180100D01*
X590758Y179700D01*
X587458Y203000D02*
X587857Y203800D01*
X587458Y204600D01*
X588258Y204200D01*
X589057Y204600D01*
X588658Y203800D01*
X589057Y203000D01*
X588258Y203400D01*
X587458Y203000D01*
X590758D02*
X591157Y203800D01*
X590758Y204600D01*
X591558Y204200D01*
X592357Y204600D01*
X591958Y203800D01*
X592357Y203000D01*
X591558Y203400D01*
X590758Y203000D01*
X587458Y199700D02*
X587857Y200500D01*
X587458Y201300D01*
X588258Y200900D01*
X589057Y201300D01*
X588658Y200500D01*
X589057Y199700D01*
X588258Y200100D01*
X587458Y199700D01*
X590758D02*
X591157Y200500D01*
X590758Y201300D01*
X591558Y200900D01*
X592357Y201300D01*
X591958Y200500D01*
X592357Y199700D01*
X591558Y200100D01*
X590758Y199700D01*
X587458Y265000D02*
X587857Y265800D01*
X587458Y266600D01*
X588258Y266200D01*
X589057Y266600D01*
X588658Y265800D01*
X589057Y265000D01*
X588258Y265400D01*
X587458Y265000D01*
X590758D02*
X591157Y265800D01*
X590758Y266600D01*
X591558Y266200D01*
X592357Y266600D01*
X591958Y265800D01*
X592357Y265000D01*
X591558Y265400D01*
X590758Y265000D01*
X587458Y261700D02*
X587857Y262500D01*
X587458Y263300D01*
X588258Y262900D01*
X589057Y263300D01*
X588658Y262500D01*
X589057Y261700D01*
X588258Y262100D01*
X587458Y261700D01*
X590758D02*
X591157Y262500D01*
X590758Y263300D01*
X591558Y262900D01*
X592357Y263300D01*
X591958Y262500D01*
X592357Y261700D01*
X591558Y262100D01*
X590758Y261700D01*
X587458Y225000D02*
X587857Y225800D01*
X587458Y226600D01*
X588258Y226200D01*
X589057Y226600D01*
X588658Y225800D01*
X589057Y225000D01*
X588258Y225400D01*
X587458Y225000D01*
X590758D02*
X591157Y225800D01*
X590758Y226600D01*
X591558Y226200D01*
X592357Y226600D01*
X591958Y225800D01*
X592357Y225000D01*
X591558Y225400D01*
X590758Y225000D01*
X587458Y221700D02*
X587857Y222500D01*
X587458Y223300D01*
X588258Y222900D01*
X589057Y223300D01*
X588658Y222500D01*
X589057Y221700D01*
X588258Y222100D01*
X587458Y221700D01*
X590758D02*
X591157Y222500D01*
X590758Y223300D01*
X591558Y222900D01*
X592357Y223300D01*
X591958Y222500D01*
X592357Y221700D01*
X591558Y222100D01*
X590758Y221700D01*
Y215000D02*
X591157Y215800D01*
X590758Y216600D01*
X591558Y216200D01*
X592357Y216600D01*
X591958Y215800D01*
X592357Y215000D01*
X591558Y215400D01*
X590758Y215000D01*
Y211700D02*
X591157Y212500D01*
X590758Y213300D01*
X591558Y212900D01*
X592357Y213300D01*
X591958Y212500D01*
X592357Y211700D01*
X591558Y212100D01*
X590758Y211700D01*
X587458Y193000D02*
X587857Y193800D01*
X587458Y194600D01*
X588258Y194200D01*
X589057Y194600D01*
X588658Y193800D01*
X589057Y193000D01*
X588258Y193400D01*
X587458Y193000D01*
X590758D02*
X591157Y193800D01*
X590758Y194600D01*
X591558Y194200D01*
X592357Y194600D01*
X591958Y193800D01*
X592357Y193000D01*
X591558Y193400D01*
X590758Y193000D01*
X587458Y189700D02*
X587857Y190500D01*
X587458Y191300D01*
X588258Y190900D01*
X589057Y191300D01*
X588658Y190500D01*
X589057Y189700D01*
X588258Y190100D01*
X587458Y189700D01*
X590758D02*
X591157Y190500D01*
X590758Y191300D01*
X591558Y190900D01*
X592357Y191300D01*
X591958Y190500D01*
X592357Y189700D01*
X591558Y190100D01*
X590758Y189700D01*
X587458Y255000D02*
X587857Y255800D01*
X587458Y256600D01*
X588258Y256200D01*
X589057Y256600D01*
X588658Y255800D01*
X589057Y255000D01*
X588258Y255400D01*
X587458Y255000D01*
X590758D02*
X591157Y255800D01*
X590758Y256600D01*
X591558Y256200D01*
X592357Y256600D01*
X591958Y255800D01*
X592357Y255000D01*
X591558Y255400D01*
X590758Y255000D01*
X587458Y251700D02*
X587857Y252500D01*
X587458Y253300D01*
X588258Y252900D01*
X589057Y253300D01*
X588658Y252500D01*
X589057Y251700D01*
X588258Y252100D01*
X587458Y251700D01*
X590758D02*
X591157Y252500D01*
X590758Y253300D01*
X591558Y252900D01*
X592357Y253300D01*
X591958Y252500D01*
X592357Y251700D01*
X591558Y252100D01*
X590758Y251700D01*
X582700Y241000D02*
X583100Y241800D01*
X582700Y242600D01*
X583500Y242200D01*
X584300Y242600D01*
X583900Y241800D01*
X584300Y241000D01*
X583500Y241400D01*
X582700Y241000D01*
X571552Y244000D02*
X571952Y244800D01*
X571552Y245600D01*
X572352Y245200D01*
X573152Y245600D01*
X572752Y244800D01*
X573152Y244000D01*
X572352Y244400D01*
X571552Y244000D01*
X568600D02*
X569000Y244800D01*
X568600Y245600D01*
X569400Y245200D01*
X570200Y245600D01*
X569800Y244800D01*
X570200Y244000D01*
X569400Y244400D01*
X568600Y244000D01*
X544516Y274900D02*
X544916Y275700D01*
X544516Y276500D01*
X545316Y276100D01*
X546116Y276500D01*
X545716Y275700D01*
X546116Y274900D01*
X545316Y275300D01*
X544516Y274900D01*
X561400Y256300D02*
X561800Y257100D01*
X561400Y257900D01*
X562200Y257500D01*
X563000Y257900D01*
X562600Y257100D01*
X563000Y256300D01*
X562200Y256700D01*
X561400Y256300D01*
X559000Y254500D02*
X559400Y255300D01*
X559000Y256100D01*
X559800Y255700D01*
X560600Y256100D01*
X560200Y255300D01*
X560600Y254500D01*
X559800Y254900D01*
X559000Y254500D01*
X552400Y263617D02*
X552800Y264417D01*
X552400Y265217D01*
X553200Y264817D01*
X554000Y265217D01*
X553600Y264417D01*
X554000Y263617D01*
X553200Y264017D01*
X552400Y263617D01*
X554358Y261400D02*
X554758Y262200D01*
X554358Y263000D01*
X555158Y262600D01*
X555958Y263000D01*
X555558Y262200D01*
X555958Y261400D01*
X555158Y261800D01*
X554358Y261400D01*
X428463Y297737D02*
X428863Y298537D01*
X428463Y299337D01*
X429263Y298937D01*
X430063Y299337D01*
X429663Y298537D01*
X430063Y297737D01*
X429263Y298137D01*
X428463Y297737D01*
X453500Y293100D02*
Y292700D01*
X454300D01*
Y293100D01*
X454700D01*
Y293900D01*
X454300D01*
Y294300D01*
X453500D01*
Y293900D01*
X453100D01*
Y293100D01*
X453500D01*
X594100Y275500D02*
X594500Y276300D01*
X594100Y277100D01*
X594900Y276700D01*
X595700Y277100D01*
X595300Y276300D01*
X595700Y275500D01*
X594900Y275900D01*
X594100Y275500D01*
X465533Y198833D02*
X465933Y199633D01*
X465533Y200433D01*
X466333Y200033D01*
X467133Y200433D01*
X466733Y199633D01*
X467133Y198833D01*
X466333Y199233D01*
X465533Y198833D01*
X435233Y199300D02*
X435633Y200100D01*
X435233Y200900D01*
X436033Y200500D01*
X436833Y200900D01*
X436433Y200100D01*
X436833Y199300D01*
X436033Y199700D01*
X435233Y199300D01*
X428463Y286900D02*
X428863Y287700D01*
X428463Y288500D01*
X429263Y288100D01*
X430063Y288500D01*
X429663Y287700D01*
X430063Y286900D01*
X429263Y287300D01*
X428463Y286900D01*
Y316900D02*
X428863Y317700D01*
X428463Y318500D01*
X429263Y318100D01*
X430063Y318500D01*
X429663Y317700D01*
X430063Y316900D01*
X429263Y317300D01*
X428463Y316900D01*
X546484Y250000D02*
X546884Y250800D01*
X546484Y251600D01*
X547284Y251200D01*
X548084Y251600D01*
X547684Y250800D01*
X548084Y250000D01*
X547284Y250400D01*
X546484Y250000D01*
X544516Y263942D02*
X544916Y264742D01*
X544516Y265542D01*
X545316Y265142D01*
X546116Y265542D01*
X545716Y264742D01*
X546116Y263942D01*
X545316Y264342D01*
X544516Y263942D01*
X542344Y265992D02*
X542744Y266792D01*
X542344Y267592D01*
X543144Y267192D01*
X543944Y267592D01*
X543544Y266792D01*
X543944Y265992D01*
X543144Y266392D01*
X542344Y265992D01*
X540293Y268043D02*
X540693Y268843D01*
X540293Y269643D01*
X541093Y269243D01*
X541893Y269643D01*
X541493Y268843D01*
X541893Y268043D01*
X541093Y268443D01*
X540293Y268043D01*
X550300Y235900D02*
X550700Y236700D01*
X550300Y237500D01*
X551100Y237100D01*
X551900Y237500D01*
X551500Y236700D01*
X551900Y235900D01*
X551100Y236300D01*
X550300Y235900D01*
X523300Y281200D02*
X523700Y282000D01*
X523300Y282800D01*
X524100Y282400D01*
X524900Y282800D01*
X524500Y282000D01*
X524900Y281200D01*
X524100Y281600D01*
X523300Y281200D01*
Y285700D02*
X523700Y286500D01*
X523300Y287300D01*
X524100Y286900D01*
X524900Y287300D01*
X524500Y286500D01*
X524900Y285700D01*
X524100Y286100D01*
X523300Y285700D01*
X534100Y289000D02*
X534500Y289800D01*
X534100Y290600D01*
X534900Y290200D01*
X535700Y290600D01*
X535300Y289800D01*
X535700Y289000D01*
X534900Y289400D01*
X534100Y289000D01*
X525400Y300700D02*
X525800Y301500D01*
X525400Y302300D01*
X526200Y301900D01*
X527000Y302300D01*
X526600Y301500D01*
X527000Y300700D01*
X526200Y301100D01*
X525400Y300700D01*
X454600Y271250D02*
X455000Y272050D01*
X454600Y272850D01*
X455400Y272450D01*
X456200Y272850D01*
X455800Y272050D01*
X456200Y271250D01*
X455400Y271650D01*
X454600Y271250D01*
X496300Y203800D02*
X496700Y204600D01*
X496300Y205400D01*
X497100Y205000D01*
X497900Y205400D01*
X497500Y204600D01*
X497900Y203800D01*
X497100Y204200D01*
X496300Y203800D01*
X461200Y255500D02*
X461600Y256300D01*
X461200Y257100D01*
X462000Y256700D01*
X462800Y257100D01*
X462400Y256300D01*
X462800Y255500D01*
X462000Y255900D01*
X461200Y255500D01*
Y252300D02*
X461600Y253100D01*
X461200Y253900D01*
X462000Y253500D01*
X462800Y253900D01*
X462400Y253100D01*
X462800Y252300D01*
X462000Y252700D01*
X461200Y252300D01*
Y245900D02*
X461600Y246700D01*
X461200Y247500D01*
X462000Y247100D01*
X462800Y247500D01*
X462400Y246700D01*
X462800Y245900D01*
X462000Y246300D01*
X461200Y245900D01*
Y249100D02*
X461600Y249900D01*
X461200Y250700D01*
X462000Y250300D01*
X462800Y250700D01*
X462400Y249900D01*
X462800Y249100D01*
X462000Y249500D01*
X461200Y249100D01*
X544516Y268063D02*
X544916Y268863D01*
X544516Y269663D01*
X545316Y269263D01*
X546116Y269663D01*
X545716Y268863D01*
X546116Y268063D01*
X545316Y268463D01*
X544516Y268063D01*
Y272000D02*
X544916Y272800D01*
X544516Y273600D01*
X545316Y273200D01*
X546116Y273600D01*
X545716Y272800D01*
X546116Y272000D01*
X545316Y272400D01*
X544516Y272000D01*
X571600Y262000D02*
X572000Y262800D01*
X571600Y263600D01*
X572400Y263200D01*
X573200Y263600D01*
X572800Y262800D01*
X573200Y262000D01*
X572400Y262400D01*
X571600Y262000D01*
X568200Y271800D02*
X568600Y272600D01*
X568200Y273400D01*
X569000Y273000D01*
X569800Y273400D01*
X569400Y272600D01*
X569800Y271800D01*
X569000Y272200D01*
X568200Y271800D01*
Y274700D02*
X568600Y275500D01*
X568200Y276300D01*
X569000Y275900D01*
X569800Y276300D01*
X569400Y275500D01*
X569800Y274700D01*
X569000Y275100D01*
X568200Y274700D01*
Y268900D02*
X568600Y269700D01*
X568200Y270500D01*
X569000Y270100D01*
X569800Y270500D01*
X569400Y269700D01*
X569800Y268900D01*
X569000Y269300D01*
X568200Y268900D01*
X574000Y279690D02*
X574400Y280490D01*
X574000Y281290D01*
X574800Y280890D01*
X575600Y281290D01*
X575200Y280490D01*
X575600Y279690D01*
X574800Y280090D01*
X574000Y279690D01*
X571851Y277649D02*
X572251Y278449D01*
X571851Y279249D01*
X572651Y278849D01*
X573451Y279249D01*
X573051Y278449D01*
X573451Y277649D01*
X572651Y278049D01*
X571851Y277649D01*
X500600Y265700D02*
Y265300D01*
X501400D01*
Y265700D01*
X501800D01*
Y266500D01*
X501400D01*
Y266900D01*
X500600D01*
Y266500D01*
X500200D01*
Y265700D01*
X500600D01*
X417800Y311300D02*
Y310900D01*
X418600D01*
Y311300D01*
X419000D01*
Y312100D01*
X418600D01*
Y312500D01*
X417800D01*
Y312100D01*
X417400D01*
Y311300D01*
X417800D01*
X500994Y304100D02*
Y303700D01*
X501794D01*
Y304100D01*
X502194D01*
Y304900D01*
X501794D01*
Y305300D01*
X500994D01*
Y304900D01*
X500594D01*
Y304100D01*
X500994D01*
X489100Y322900D02*
X489500Y323700D01*
X489100Y324500D01*
X489900Y324100D01*
X490700Y324500D01*
X490300Y323700D01*
X490700Y322900D01*
X489900Y323300D01*
X489100Y322900D01*
X481600Y317200D02*
X482000Y318000D01*
X481600Y318800D01*
X482400Y318400D01*
X483200Y318800D01*
X482800Y318000D01*
X483200Y317200D01*
X482400Y317600D01*
X481600Y317200D01*
X484300Y318700D02*
X484700Y319500D01*
X484300Y320300D01*
X485100Y319900D01*
X485900Y320300D01*
X485500Y319500D01*
X485900Y318700D01*
X485100Y319100D01*
X484300Y318700D01*
X486700Y320800D02*
X487100Y321600D01*
X486700Y322400D01*
X487500Y322000D01*
X488300Y322400D01*
X487900Y321600D01*
X488300Y320800D01*
X487500Y321200D01*
X486700Y320800D01*
X407000Y312800D02*
Y312400D01*
X407800D01*
Y312800D01*
X408200D01*
Y313600D01*
X407800D01*
Y314000D01*
X407000D01*
Y313600D01*
X406600D01*
Y312800D01*
X407000D01*
X427400Y332600D02*
Y332200D01*
X428200D01*
Y332600D01*
X428600D01*
Y333400D01*
X428200D01*
Y333800D01*
X427400D01*
Y333400D01*
X427000D01*
Y332600D01*
X427400D01*
X564100Y310600D02*
X564500Y311400D01*
X564100Y312200D01*
X564900Y311800D01*
X565700Y312200D01*
X565300Y311400D01*
X565700Y310600D01*
X564900Y311000D01*
X564100Y310600D01*
X550900Y302500D02*
X551300Y303300D01*
X550900Y304100D01*
X551700Y303700D01*
X552500Y304100D01*
X552100Y303300D01*
X552500Y302500D01*
X551700Y302900D01*
X550900Y302500D01*
X546657Y298257D02*
X547057Y299057D01*
X546657Y299857D01*
X547457Y299457D01*
X548257Y299857D01*
X547857Y299057D01*
X548257Y298257D01*
X547457Y298657D01*
X546657Y298257D01*
X548779Y300379D02*
X549179Y301179D01*
X548779Y301979D01*
X549579Y301579D01*
X550379Y301979D01*
X549979Y301179D01*
X550379Y300379D01*
X549579Y300779D01*
X548779Y300379D01*
X556300Y295300D02*
X556700Y296100D01*
X556300Y296900D01*
X557100Y296500D01*
X557900Y296900D01*
X557500Y296100D01*
X557900Y295300D01*
X557100Y295700D01*
X556300Y295300D01*
Y298300D02*
X556700Y299100D01*
X556300Y299900D01*
X557100Y299500D01*
X557900Y299900D01*
X557500Y299100D01*
X557900Y298300D01*
X557100Y298700D01*
X556300Y298300D01*
X556327Y301300D02*
X556727Y302100D01*
X556327Y302900D01*
X557127Y302500D01*
X557927Y302900D01*
X557527Y302100D01*
X557927Y301300D01*
X557127Y301700D01*
X556327Y301300D01*
X520300Y279800D02*
X520700Y280600D01*
X520300Y281400D01*
X521100Y281000D01*
X521900Y281400D01*
X521500Y280600D01*
X521900Y279800D01*
X521100Y280200D01*
X520300Y279800D01*
X559000Y287866D02*
X559400Y288666D01*
X559000Y289466D01*
X559800Y289066D01*
X560600Y289466D01*
X560200Y288666D01*
X560600Y287866D01*
X559800Y288266D01*
X559000Y287866D01*
X538600Y283627D02*
X539000Y284427D01*
X538600Y285227D01*
X539400Y284827D01*
X540200Y285227D01*
X539800Y284427D01*
X540200Y283627D01*
X539400Y284027D01*
X538600Y283627D01*
X478600Y279100D02*
X479000Y279900D01*
X478600Y280700D01*
X479400Y280300D01*
X480200Y280700D01*
X479800Y279900D01*
X480200Y279100D01*
X479400Y279500D01*
X478600Y279100D01*
X481500D02*
X481900Y279900D01*
X481500Y280700D01*
X482300Y280300D01*
X483100Y280700D01*
X482700Y279900D01*
X483100Y279100D01*
X482300Y279500D01*
X481500Y279100D01*
X556957Y208676D02*
X557358D01*
X557758Y209076D01*
X558157Y208676D01*
X558558D01*
Y209076D01*
X558157Y209476D01*
X558558Y209876D01*
Y210276D01*
X558157D01*
X557758Y209876D01*
X557358Y210276D01*
X556957D01*
Y209876D01*
X557358Y209476D01*
X556957Y209076D01*
Y208676D01*
X392901Y350394D02*
X393701Y351194D01*
X394501Y350394D01*
X393701Y349594D01*
X392901Y350394D01*
X585814D02*
X586614Y351194D01*
X587414Y350394D01*
X586614Y349594D01*
X585814Y350394D01*
Y157480D02*
X586614Y158280D01*
X587414Y157480D01*
X586614Y156680D01*
X585814Y157480D01*
X419085Y346471D02*
X419485D01*
X419885Y346871D01*
X420285Y346471D01*
X420685D01*
Y346871D01*
X420285Y347271D01*
X420685Y347671D01*
Y348071D01*
X420285D01*
X419885Y347671D01*
X419485Y348071D01*
X419085D01*
Y347671D01*
X419485Y347271D01*
X419085Y346871D01*
Y346471D01*
X411120Y338583D02*
X411920Y339383D01*
X412720Y338583D01*
X411920Y337783D01*
X411120Y338583D01*
X568600D02*
X569400Y339383D01*
X570200Y338583D01*
X569400Y337783D01*
X568600Y338583D01*
Y157480D02*
X569400Y158280D01*
X570200Y157480D01*
X569400Y156680D01*
X568600Y157480D01*
X411120Y158118D02*
X411920Y158918D01*
X412720Y158118D01*
X411920Y157318D01*
X411120Y158118D01*
X392901Y157480D02*
X393701Y158280D01*
X394501Y157480D01*
X393701Y156680D01*
X392901Y157480D01*
D12*
X536943Y178510D02*
Y192290D01*
X529857Y178510D02*
Y192290D01*
X536943D01*
X529857Y178510D02*
X536943D01*
X463013Y200842D02*
X477187D01*
X463013Y216590D02*
X477187D01*
X463013Y200842D02*
Y216590D01*
X477187Y200842D02*
Y216590D01*
X480010Y193623D02*
Y208977D01*
X493790Y193623D02*
Y208977D01*
X480010Y193623D02*
X493790D01*
X480010Y208977D02*
X493790D01*
X553623Y321890D02*
X568977D01*
X553623Y308110D02*
X568977D01*
X553623D02*
Y321890D01*
X568977Y308110D02*
Y321890D01*
X426310Y315057D02*
X440090D01*
X426310Y322143D02*
X440090D01*
Y315057D02*
Y322143D01*
X426310Y315057D02*
Y322143D01*
X406623Y302541D02*
X421977D01*
X406623Y288761D02*
X421977D01*
X406623D02*
Y302541D01*
X421977Y288761D02*
Y302541D01*
X406623Y288294D02*
X421977D01*
X406623Y274515D02*
X421977D01*
X406623D02*
Y288294D01*
X421977Y274515D02*
Y288294D01*
X406623Y245553D02*
X421977D01*
X406623Y231773D02*
X421977D01*
X406623D02*
Y245553D01*
X421977Y231773D02*
Y245553D01*
X406623Y231306D02*
X421977D01*
X406623Y217527D02*
X421977D01*
X406623D02*
Y231306D01*
X421977Y217527D02*
Y231306D01*
X406623Y274047D02*
X421977D01*
X406623Y260267D02*
X421977D01*
X406623D02*
Y274047D01*
X421977Y260267D02*
Y274047D01*
X406623Y259800D02*
X421977D01*
X406623Y246021D02*
X421977D01*
X406623D02*
Y259800D01*
X421977Y246021D02*
Y259800D01*
X553770Y170410D02*
Y184190D01*
X538416Y170410D02*
Y184190D01*
Y170410D02*
X553770D01*
X538416Y184190D02*
X553770D01*
X525828Y253128D02*
X566772D01*
X525828Y294072D02*
X566772D01*
X525828Y253128D02*
Y294072D01*
X566772Y253128D02*
Y294072D01*
D13*
X495800Y168000D02*
G03*
X495800Y168000I-800J0D01*
G01*
X523359D02*
G03*
X523359Y168000I-800J0D01*
G01*
X450524Y186504D02*
G03*
X450524Y186504I-800J0D01*
G01*
Y168000D02*
G03*
X450524Y168000I-800J0D01*
G01*
D14*
X586614Y147638D02*
G03*
X596457Y157480I0J9843D01*
G01*
Y350394D02*
G03*
X586614Y360236I-9843J0D01*
G01*
X383858Y157480D02*
G03*
X393701Y147638I9843J0D01*
G01*
X393701Y360236D02*
G03*
X383858Y350394I0J-9843D01*
G01*
X393701Y360236D02*
G03*
X383858Y350394I0J-9843D01*
G01*
X596457D02*
G03*
X586614Y360236I-9843J0D01*
G01*
X383858Y157480D02*
G03*
X393701Y147638I9843J0D01*
G01*
X586614D02*
G03*
X596457Y157480I0J9843D01*
G01*
X383858D02*
Y350394D01*
X596457Y157480D02*
Y350394D01*
X393701Y360236D02*
X586614D01*
X393701Y147638D02*
X586614D01*
M02*
