M48
;Layer_Color=9474304
;FILE_FORMAT=2:5
INCH,LZ
;TYPE=PLATED
T1F00S00C0.01200
T2F00S00C0.02400
T3F00S00C0.02953
T4F00S00C0.03543
T5F00S00C0.04331
T6F00S00C0.07480
T7F00S00C0.09055
T8F00S00C0.12205
%
T01
X05291Y01521
Y01554
X05324
Y01521
X05391
X05424
Y01554
X05391
X0553158Y01602
X05439Y01788
X0536961Y01746
X05316Y0168
X05076Y01827
Y0195
X0512495
X04971Y02046
X0495Y02157
X05061Y02211
X0508221Y0223221
X0537471Y02226
X0543693Y02166
X0546Y02148
X0566661Y0214998
X05688Y02127
X05715Y02109
X0591558Y02125
Y02158
Y02225
Y02258
X0588258
Y02225
X05826Y0231
X05835Y02418
X0572352Y02448
X05694
X05679Y0234
Y0231
X0558135Y02397
X05511Y02367
X0547284Y02508
X0545316Y0264742
Y0268863
Y02728
Y02757
X0543144Y0266792
X0541093Y0268843
X05532Y0264417
X0555158Y02622
X05598Y02553
X05622Y02571
X05724Y02628
X0569Y02697
Y02726
Y02755
X0572651Y0278449
X05748Y028049
X05598Y0288666
X05571Y02961
Y02991
X0557127Y03021
X05517Y03033
X0549579Y0301179
X0547457Y0299057
X05349Y02898
X05394Y0284427
X05241Y02865
Y0282
X05211Y02806
X0522367Y0291
X05262Y03015
X05649Y03114
X05949Y02763
X0591558Y02658
X0588258
Y02625
X0591558
Y02558
X0588258
Y02525
X0591558
Y02038
X0588258
Y02005
X0591558
Y01938
X0588258
Y01905
X0591558
Y01838
X0588258
Y01805
X0591558
X05553Y01914
X0549143
X04941Y02802
X04911
X04823Y02799
X04794
X04842Y02889
X04871
X04833Y02919
X04824Y02949
X04698Y02757
X04665
Y02724
X04554Y027205
X0462Y02563
Y02531
Y02499
Y02467
X04545Y0234
Y0231
X04431
X04311Y02358
X0436033Y02001
X04416Y02046
X0466333Y0199633
X04026Y02046
X03906Y02019
X0429263Y02877
Y0298537
Y03177
X04824Y0318
X04851Y03195
X04875Y03216
X04899Y03237
T02
X04737Y0162094
X0501Y02661
X0501394Y03045
X04539Y02935
X04182Y03117
X04635Y01746
X04278Y0333
X04074Y03132
T03
X0495Y0168
X0522559
X0449724
Y0186504
T04
X05802Y02835
X05902
Y02935
X05802
Y03035
X05902
Y03135
X05802
Y03235
X05902
Y03335
X05802
T05
X03949Y0150541
Y0194041
T06
X04344Y0162291
Y0182291
T07
X0557758Y0209476
X0419885Y0347271
T08
X05694Y015748
X0586614
X041192Y0158118
X0393701Y015748
Y0350394
X041192Y0338583
X05694
X0586614Y0350394
M30
