G04*
G04 #@! TF.GenerationSoftware,Altium Limited,Altium Designer,18.1.9 (240)*
G04*
G04 Layer_Color=32896*
%FSLAX25Y25*%
%MOIN*%
G70*
G01*
G75*
%ADD13C,0.01000*%
%ADD20C,0.00591*%
D13*
X385876Y326350D02*
X388238Y328712D01*
X385876Y268869D02*
Y326350D01*
X395324Y268869D02*
Y328712D01*
X385876Y268869D02*
X395324D01*
X388238Y328712D02*
X390600D01*
X395324D01*
X528280Y148876D02*
X555839D01*
X525918Y151238D02*
Y158324D01*
X555839D01*
X525918Y151238D02*
X528280Y148876D01*
X555839D02*
Y158324D01*
X585076Y208488D02*
X589800D01*
X592162D01*
X585076Y268331D02*
X594524D01*
X585076Y208488D02*
Y268331D01*
X594524Y210850D02*
Y268331D01*
X592162Y208488D02*
X594524Y210850D01*
X489300Y329372D02*
Y356537D01*
X544418Y329372D02*
X552292D01*
Y356537D01*
X497174D02*
X544418D01*
X489300Y329372D02*
X497174D01*
X424952D02*
Y356537D01*
X480070Y329372D02*
X487944D01*
Y356537D01*
X432826D02*
X480070D01*
X424952Y329372D02*
X432826D01*
X445876Y158324D02*
X525403D01*
X445876Y151238D02*
X448238Y148876D01*
X449025D01*
X525403D02*
Y158324D01*
X445876Y151238D02*
Y158324D01*
X449025Y148876D02*
X525403D01*
X505334Y309376D02*
Y317250D01*
X532499Y262132D02*
Y309376D01*
X505334Y254257D02*
X532499D01*
X505334D02*
Y262132D01*
Y317250D02*
X532499D01*
X471466Y254257D02*
Y262132D01*
X444301D02*
Y309376D01*
Y317250D02*
X471466D01*
Y309376D02*
Y317250D01*
X444301Y254257D02*
X471466D01*
X385876Y266050D02*
X388238Y268412D01*
X385876Y208569D02*
Y266050D01*
X395324Y208569D02*
Y268412D01*
X385876Y208569D02*
X395324D01*
X388238Y268412D02*
X390600D01*
X395324D01*
X585076Y207197D02*
X594524D01*
X592162Y177276D02*
X594524Y179638D01*
X585076Y177276D02*
Y207197D01*
Y177276D02*
X592162D01*
X594524Y179638D02*
Y207197D01*
D20*
X577002Y172396D02*
X577462Y172855D01*
X578380D01*
X578839Y172396D01*
Y171937D01*
X578380Y171477D01*
X577462D01*
X577002Y171018D01*
Y170559D01*
X577462Y170100D01*
X578380D01*
X578839Y170559D01*
X576084Y172855D02*
Y170100D01*
X574707D01*
X574248Y170559D01*
Y171018D01*
X574707Y171477D01*
X576084D01*
X574707D01*
X574248Y171937D01*
Y172396D01*
X574707Y172855D01*
X576084D01*
X573329D02*
Y170559D01*
X572870Y170100D01*
X571952D01*
X571492Y170559D01*
Y172855D01*
X568737Y172396D02*
X569197Y172855D01*
X570115D01*
X570574Y172396D01*
Y171937D01*
X570115Y171477D01*
X569197D01*
X568737Y171018D01*
Y170559D01*
X569197Y170100D01*
X570115D01*
X570574Y170559D01*
X577002Y183655D02*
X578839D01*
Y182278D01*
X577921Y182737D01*
X577462D01*
X577002Y182278D01*
Y181359D01*
X577462Y180900D01*
X578380D01*
X578839Y181359D01*
X576084Y183655D02*
Y181818D01*
X575166Y180900D01*
X574248Y181818D01*
Y183655D01*
X531345Y160714D02*
Y162551D01*
Y161632D01*
X534100D01*
X532263Y163469D02*
X534100Y165306D01*
X533182Y164387D01*
X532263Y165306D01*
X534100Y163469D01*
X541745Y162551D02*
Y160714D01*
X543122D01*
X542663Y161632D01*
Y162091D01*
X543122Y162551D01*
X544041D01*
X544500Y162091D01*
Y161173D01*
X544041Y160714D01*
X541745Y163469D02*
X543582D01*
X544500Y164387D01*
X543582Y165306D01*
X541745D01*
X551804Y162551D02*
X551345Y162091D01*
Y161173D01*
X551804Y160714D01*
X553641D01*
X554100Y161173D01*
Y162091D01*
X553641Y162551D01*
X552723D01*
Y161632D01*
X554100Y163469D02*
X551345D01*
X554100Y165306D01*
X551345D01*
Y166224D02*
X554100D01*
Y167602D01*
X553641Y168061D01*
X551804D01*
X551345Y167602D01*
Y166224D01*
X481820Y161314D02*
X482279Y161773D01*
Y162691D01*
X481820Y163151D01*
X479984D01*
X479524Y162691D01*
Y161773D01*
X479984Y161314D01*
X480443D01*
X480902Y161773D01*
Y163151D01*
X479524Y164069D02*
X481361D01*
X482279Y164987D01*
X481361Y165906D01*
X479524D01*
X509774Y163151D02*
X509315Y162691D01*
Y161773D01*
X509774Y161314D01*
X511611D01*
X512070Y161773D01*
Y162691D01*
X511611Y163151D01*
X510692D01*
Y162232D01*
X512070Y164069D02*
X509315D01*
X512070Y165906D01*
X509315D01*
Y166824D02*
X512070D01*
Y168201D01*
X511611Y168661D01*
X509774D01*
X509315Y168201D01*
Y166824D01*
X499385Y161314D02*
X501221D01*
X502140Y162232D01*
X501221Y163151D01*
X499385D01*
Y164069D02*
Y164987D01*
Y164528D01*
X502140D01*
Y164069D01*
Y164987D01*
Y166365D02*
X499385D01*
X502140Y168201D01*
X499385D01*
X489455Y163151D02*
Y161314D01*
X492209D01*
Y163151D01*
X490832Y161314D02*
Y162232D01*
X492209Y164069D02*
X489455D01*
X492209Y165906D01*
X489455D01*
X449734Y163151D02*
Y161314D01*
X452489D01*
Y163151D01*
X451112Y161314D02*
Y162232D01*
X452489Y164069D02*
X449734D01*
X452489Y165906D01*
X449734D01*
X459664Y161314D02*
X461501D01*
X462419Y162232D01*
X461501Y163151D01*
X459664D01*
Y164069D02*
Y164987D01*
Y164528D01*
X462419D01*
Y164069D01*
Y164987D01*
Y166365D02*
X459664D01*
X462419Y168201D01*
X459664D01*
X470053Y163151D02*
X469594Y162691D01*
Y161773D01*
X470053Y161314D01*
X471890D01*
X472349Y161773D01*
Y162691D01*
X471890Y163151D01*
X470972D01*
Y162232D01*
X472349Y164069D02*
X469594D01*
X472349Y165906D01*
X469594D01*
Y166824D02*
X472349D01*
Y168201D01*
X471890Y168661D01*
X470053D01*
X469594Y168201D01*
Y166824D01*
X519245Y163151D02*
Y161314D01*
X520622D01*
X520163Y162232D01*
Y162691D01*
X520622Y163151D01*
X521541D01*
X522000Y162691D01*
Y161773D01*
X521541Y161314D01*
X519245Y164069D02*
X521082D01*
X522000Y164987D01*
X521082Y165906D01*
X519245D01*
X485305Y314884D02*
X482550D01*
X483468Y313966D01*
X482550Y313048D01*
X485305D01*
Y311670D02*
Y310752D01*
X484846Y310293D01*
X483927D01*
X483468Y310752D01*
Y311670D01*
X483927Y312129D01*
X484846D01*
X485305Y311670D01*
X483009Y308915D02*
X483468D01*
Y309374D01*
Y308456D01*
Y308915D01*
X484846D01*
X485305Y308456D01*
Y306619D02*
Y305701D01*
X484846Y305242D01*
X483927D01*
X483468Y305701D01*
Y306619D01*
X483927Y307078D01*
X484846D01*
X485305Y306619D01*
X483468Y304323D02*
X485305D01*
X484387D01*
X483927Y303864D01*
X483468Y303405D01*
Y302946D01*
X485305Y300191D02*
X482550D01*
X483927Y301568D01*
Y299732D01*
X481317Y321600D02*
Y318845D01*
X482236Y319763D01*
X483154Y318845D01*
Y321600D01*
X484531D02*
X485450D01*
X485909Y321141D01*
Y320222D01*
X485450Y319763D01*
X484531D01*
X484072Y320222D01*
Y321141D01*
X484531Y321600D01*
X487287Y319304D02*
Y319763D01*
X486827D01*
X487746D01*
X487287D01*
Y321141D01*
X487746Y321600D01*
X489582D02*
X490501D01*
X490960Y321141D01*
Y320222D01*
X490501Y319763D01*
X489582D01*
X489123Y320222D01*
Y321141D01*
X489582Y321600D01*
X491878Y319763D02*
Y321600D01*
Y320682D01*
X492337Y320222D01*
X492797Y319763D01*
X493256D01*
X494633Y319304D02*
X495092Y318845D01*
X496011D01*
X496470Y319304D01*
Y319763D01*
X496011Y320222D01*
X495552D01*
X496011D01*
X496470Y320682D01*
Y321141D01*
X496011Y321600D01*
X495092D01*
X494633Y321141D01*
X491794Y255470D02*
X494549D01*
X493631Y256388D01*
X494549Y257307D01*
X491794D01*
Y258684D02*
Y259603D01*
X492253Y260062D01*
X493172D01*
X493631Y259603D01*
Y258684D01*
X493172Y258225D01*
X492253D01*
X491794Y258684D01*
X494090Y261439D02*
X493631D01*
Y260980D01*
Y261898D01*
Y261439D01*
X492253D01*
X491794Y261898D01*
Y263735D02*
Y264653D01*
X492253Y265113D01*
X493172D01*
X493631Y264653D01*
Y263735D01*
X493172Y263276D01*
X492253D01*
X491794Y263735D01*
X493631Y266031D02*
X491794D01*
X492713D01*
X493172Y266490D01*
X493631Y266949D01*
Y267408D01*
X491794Y270623D02*
Y268786D01*
X493631Y270623D01*
X494090D01*
X494549Y270163D01*
Y269245D01*
X494090Y268786D01*
X545713Y321606D02*
Y318851D01*
X546631Y319770D01*
X547549Y318851D01*
Y321606D01*
X548927D02*
X549845D01*
X550304Y321147D01*
Y320229D01*
X549845Y319770D01*
X548927D01*
X548468Y320229D01*
Y321147D01*
X548927Y321606D01*
X551682Y319310D02*
Y319770D01*
X551223D01*
X552141D01*
X551682D01*
Y321147D01*
X552141Y321606D01*
X553978D02*
X554896D01*
X555355Y321147D01*
Y320229D01*
X554896Y319770D01*
X553978D01*
X553518Y320229D01*
Y321147D01*
X553978Y321606D01*
X556274Y319770D02*
Y321606D01*
Y320688D01*
X556733Y320229D01*
X557192Y319770D01*
X557651D01*
X559028Y321606D02*
X559947D01*
X559488D01*
Y318851D01*
X559028Y319310D01*
M02*
